# vtk DataFile Version 2.0
ActuatorCollision, Created by Gmsh 4.13.1 
ASCII
DATASET UNSTRUCTURED_GRID
POINTS 724 double
34 20 5
34 22.25 0
28 20 5
28 22.25 0
16 22.25 0
16 20 5
22 22.25 0
22 20 5
9.494231224060059 20 5
9.494231224060059 22.25 0
3.494230985641479 20 5
3.494230985641479 22.25 0
46 20 5
46 22.25 0
40 20 5
40 22.25 0
58 20 5
58 22.25 0
52 20 5
52 22.25 0
70 20 5
70 22.25 0
64 20 5
64 22.25 0
90 20 5
90 22.25 0
84 20 5
84 22.25 0
102 20 5
102 22.25 0
96 20 5
96 22.25 0
114 20 5
114 22.25 0
108 20 5
108 22.25 0
126 20 5
126 22.25 0
120 20 5
120 22.25 0
138 20 5
138 22.25 0
132 20 5
132 22.25 0
150 20 5
150 22.25 0
144 20 5
144 22.25 0
9.494231224060059 22.25 15
9.494231224060059 20 10
3.494230985641479 22.25 15
3.494230985641479 20 10
22 22.25 15
22 20 10
16 22.25 15
16 20 10
34 22.25 15
34 20 10
28 22.25 15
28 20 10
46 22.25 15
46 20 10
40 22.25 15
40 20 10
58 22.25 15
58 20 10
52 22.25 15
52 20 10
70 22.25 15
70 20 10
64 22.25 15
64 20 10
90 22.25 15
90 20 10
84 22.25 15
84 20 10
102 22.25 15
102 20 10
96 22.25 15
96 20 10
114 22.25 15
114 20 10
108 22.25 15
108 20 10
126 22.25 15
126 20 10
120 22.25 15
120 20 10
138 22.25 15
138 20 10
132 22.25 15
132 20 10
150 22.25 15
150 20 10
144 22.25 15
144 20 10
150 20 -2.235174179077148e-07
138 20 -2.235174179077148e-07
126 20 -2.235174179077148e-07
114 20 -2.235174179077148e-07
102 20 -2.235174179077148e-07
90 20 -2.235174179077148e-07
70 20 -2.235174179077148e-07
58 20 -2.235174179077148e-07
46 20 -2.235174179077148e-07
9.494231224060059 20 0
16 20 -2.235174179077148e-07
144 20 15
132 20 15
120 20 15
108 20 15
96 20 15
84 20 15
64 20 15
52 20 15
40 20 15
28 20 15
16 20 15
3.494230985641479 20 15
150 20 15
150 0 15
144 0 15
150 -2.25 15
144 -2.25 15
138 20 15
138 0 15
132 0 15
126 20 15
126 0 15
120 0 15
114 20 15
114 0 15
108 0 15
102 20 15
102 0 15
96 0 15
90 20 15
90 0 15
84 0 15
70 20 15
70 0 15
64 0 15
58 20 15
58 0 15
52 0 15
46 20 15
46 0 15
40 0 15
34 20 15
34 0 15
28 0 15
22 20 15
22 0 15
16 0 15
9.5 0 15
9.494231224060059 20 15
3.5 0 15
0 0 15
0 20 15
3.5 -2.25 15
9.5 -2.25 15
16 -2.25 15
22 -2.25 15
28 -2.25 15
34 -2.25 15
40 -2.25 15
46 -2.25 15
52 -2.25 15
58 -2.25 15
64 -2.25 15
70 -2.25 15
84 -2.25 15
90 -2.25 15
96 -2.25 15
102 -2.25 15
108 -2.25 15
114 -2.25 15
120 -2.25 15
126 -2.25 15
132 -2.25 15
138 -2.25 15
160 0 15
160 20 15
34 0 10
28 0 10
22 0 10
16 0 10
9.5 0 10
3.5 0 10
46 0 10
40 0 10
58 0 10
52 0 10
70 0 10
64 0 10
90 0 10
84 0 10
102 0 10
96 0 10
114 0 10
108 0 10
126 0 10
120 0 10
138 0 10
132 0 10
150 0 10
144 0 10
9.5 -2.25 0
9.5 0 5
3.5 -2.25 0
3.5 0 5
22 -2.25 0
22 0 5
16 -2.25 0
16 0 5
34 -2.25 0
34 0 5
28 -2.25 0
28 0 5
46 -2.25 0
46 0 5
40 -2.25 0
40 0 5
58 -2.25 0
58 0 5
52 -2.25 0
52 0 5
70 -2.25 0
70 0 5
64 -2.25 0
64 0 5
90 -2.25 0
90 0 5
84 -2.25 0
84 0 5
102 -2.25 0
102 0 5
96 -2.25 0
96 0 5
114 -2.25 0
114 0 5
108 -2.25 0
108 0 5
126 -2.25 0
126 0 5
120 -2.25 0
120 0 5
138 -2.25 0
138 0 5
132 -2.25 0
132 0 5
150 -2.25 0
150 0 5
144 -2.25 0
144 0 5
144 0 0
132 0 0
120 0 0
108 0 0
96 0 0
84 0 0
64 0 0
52 0 0
40 0 0
28 0 0
16 0 0
3.5 0 0
144 20 -2.235174179077148e-07
150 0 0
160 20 0
160 0 0
138 0 0
132 20 -2.235174179077148e-07
126 0 0
120 20 -2.235174179077148e-07
114 0 0
108 20 -2.235174179077148e-07
102 0 0
96 20 -2.235174179077148e-07
90 0 0
84 20 -2.235174179077148e-07
70 0 0
64 20 -2.235174179077148e-07
58 0 0
52 20 -2.235174179077148e-07
46 0 0
40 20 -2.235174179077148e-07
34 0 0
34 20 -2.235174179077148e-07
28 20 -2.235174179077148e-07
22 0 0
22 20 -2.235174179077148e-07
9.5 0 0
3.494230985641479 20 0
0 0 0
0 20 0
80 4.000000476837158 6.5
80 2 6.5
80 4.000000476837158 8.5
80 2 9
80 6.000000476837158 9
80 6.000000476837158 8.5
70 15 12
70 2 12
70 6.000000476837158 9
70 2 6.5
70 6.000000476837158 6.5
70 15 9
70 2 6
70 2 3
70 14 6
70 15 3
70 15 6
70 18 6
70 18 8.5
70 14 8.5
73 2 9
73 6.000000476837158 9
160 6.000000476837158 6.5
160 6.000000476837158 8.5
80 18 8.5
80 16 8.5
160 14 8.5
160 16 8.5
80 16 6.5
80 18 6
80 14 6
80 14 6.5
73 18 6
73 14 6
73 2 6
28 18 6
31 15 6
28 5 6
31 2 6
25 5 6
22 2 6
22 15 6
37 18 6
34 15 6
37 5 6
34 2 6
43 2 6
40 5 6
43 15 6
40 18 6
49 18 6
46 15 6
49 5 6
46 2 6
55 2 6
52 5 6
55 15 6
52 18 6
61 18 6
58 15 6
61 5 6
58 2 6
67 2 6
64 5 6
67 15 6
64 18 6
25 18 6
19 15 6
16 18 6
16 5 6
19 2 6
13 5 6
10 2 6
10 15 6
13 18 6
7 15 6
4 18 6
4 2 6
7 2 6
37 18 9
34 15 9
37 5 9
34 2 9
43 2 9
31 15 9
28 18 9
28 5 9
31 2 9
25 5 9
22 2 9
22 15 9
25 18 9
19 15 9
16 18 9
16 5 9
19 2 9
13 5 9
10 2 9
10 15 9
13 18 9
7 15 9
4 18 9
4 2 9
7 2 9
40 5 9
43 15 9
40 18 9
49 18 9
46 15 9
49 5 9
46 2 9
55 2 9
52 5 9
55 15 9
52 18 9
61 18 9
58 15 9
61 5 9
58 2 9
67 2 9
64 5 9
67 15 9
64 18 9
73 18 9
160 16 6.5
160 14 6.5
160 4.000000476837158 8.5
160 4.000000476837158 6.5
160 8.5 9
153 11.5 9
153 8.5 9
150 15 9
150 2.000000238418579 9
160 11.5 9
153 18 9
144 18 9
147 15 9
144 5.000000476837158 9
147 2.000000238418579 9
141 5.000000476837158 9
138 2.000000238418579 9
138 15 9
141 18 9
132 18 9
135 15 9
132 5.000000476837158 9
135 2.000000238418579 9
129 5.000000476837158 9
126 2.000000238418579 9
126 15 9
129 18 9
120 18 9
123 15 9
120 5.000000476837158 9
123 2.000000238418579 9
117 5.000000476837158 9
114 2.000000238418579 9
114 15 9
117 18 9
108 18 9
111 15 9
108 5.000000476837158 9
111 2.000000238418579 9
105 5.000000476837158 9
102 2.000000238418579 9
102 15 9
105 18 9
96 18 9
99 15 9
96 5.000000476837158 9
99 2.000000238418579 9
93 5.000000476837158 9
90 2.000000238418579 9
90 15 9
93 18 9
84 18 9
87 15 9
84 2.000000238418579 9
87 2.000000238418579 9
153 2.000000238418579 9
144 18 12
144 5.000000476837158 12
141 5.000000476837158 12
141 18 12
132 18 12
132 5.000000476837158 12
129 5.000000476837158 12
129 18 12
120 18 12
120 5.000000476837158 12
117 5.000000476837158 12
117 18 12
108 18 12
108 5.000000476837158 12
105 5.000000476837158 12
105 18 12
96 18 12
96 5.000000476837158 12
93 5.000000476837158 12
93 18 12
84 18 12
84 2.000000238418579 12
87 2.000000238418579 12
87 15 12
90 15 12
90 2.000000238418579 12
99 2.000000238418579 12
99 15 12
102 15 12
102 2.000000238418579 12
111 2.000000238418579 12
111 15 12
114 15 12
114 2.000000238418579 12
123 2.000000238418579 12
123 15 12
126 15 12
126 2.000000238418579 12
135 2.000000238418579 12
135 15 12
138 15 12
138 2.000000238418579 12
147 2.000000238418579 12
147 15 12
150 15 12
150 2.000000238418579 12
153 2.000000238418579 12
153 8.5 12
160 8.5 12
160 11.5 12
153 11.5 12
153 18 12
73 2 12
73 18 12
67 15 12
64 18 12
64 5 12
67 2 12
58 2 12
61 5 12
58 15 12
61 18 12
55 15 12
52 18 12
52 5 12
55 2 12
46 2 12
49 5 12
46 15 12
49 18 12
43 15 12
40 18 12
40 5 12
43 2 12
34 2 12
37 5 12
34 15 12
37 18 12
31 15 12
28 18 12
28 5 12
31 2 12
22 2 12
25 5 12
22 15 12
25 18 12
19 15 12
16 18 12
16 5 12
19 2 12
10 2 12
13 5 12
10 15 12
13 18 12
7 15 12
4 18 12
4 2 12
7 2 12
160 8.5 6
153 8.5 6
160 11.5 6
153 11.5 6
150 15 6
153 18 6
147 15 6
144 18 6
144 5.000000476837158 6
147 2.000000238418579 6
138 2.000000238418579 6
153 2.000000238418579 6
150 2.000000238418579 6
141 5.000000476837158 6
138 15 6
141 18 6
135 15 6
132 18 6
132 5.000000476837158 6
135 2.000000238418579 6
126 2.000000238418579 6
129 5.000000476837158 6
126 15 6
129 18 6
123 15 6
120 18 6
120 5.000000476837158 6
123 2.000000238418579 6
114 2.000000238418579 6
117 5.000000476837158 6
114 15 6
117 18 6
111 15 6
108 18 6
108 5.000000476837158 6
111 2.000000238418579 6
102 2.000000238418579 6
105 5.000000476837158 6
102 15 6
105 18 6
99 15 6
96 18 6
96 5.000000476837158 6
99 2.000000238418579 6
90 2.000000238418579 6
93 5.000000476837158 6
90 15 6
93 18 6
87 15 6
84 18 6
84 2.000000238418579 6
87 2.000000238418579 6
144 5.000000476837158 3
144 18 3
141 5.000000476837158 3
141 18 3
132 18 3
132 5.000000476837158 3
129 5.000000476837158 3
129 18 3
120 18 3
120 5.000000476837158 3
117 5.000000476837158 3
117 18 3
108 18 3
108 5.000000476837158 3
105 5.000000476837158 3
105 18 3
96 18 3
96 5.000000476837158 3
93 5.000000476837158 3
93 18 3
84 18 3
84 2.000000238418579 3
87 2.000000238418579 3
87 15 3
90 15 3
90 2.000000238418579 3
99 2.000000238418579 3
99 15 3
102 15 3
102 2.000000238418579 3
111 2.000000238418579 3
111 15 3
114 15 3
114 2.000000238418579 3
123 2.000000238418579 3
123 15 3
126 15 3
126 2.000000238418579 3
135 2.000000238418579 3
135 15 3
138 15 3
138 2.000000238418579 3
147 2.000000238418579 3
147 15 3
150 15 3
150 2.000000238418579 3
153 2.000000238418579 3
153 8.5 3
160 8.5 3
153 11.5 3
160 11.5 3
153 18 3
73 2 3
73 18 3
64 18 3
67 15 3
64 5 3
67 2 3
61 5 3
58 2 3
58 15 3
61 18 3
52 18 3
55 15 3
52 5 3
55 2 3
49 5 3
46 2 3
46 15 3
49 18 3
40 18 3
43 15 3
40 5 3
43 2 3
37 5 3
34 2 3
34 15 3
37 18 3
28 18 3
31 15 3
28 5 3
31 2 3
25 5 3
22 2 3
22 15 3
25 18 3
16 18 3
19 15 3
16 5 3
19 2 3
13 5 3
10 2 3
10 15 3
13 18 3
4 18 3
7 15 3
4 2 3
7 2 3

CELLS 1444 5776
3 0 1 2
3 2 1 3
3 4 5 6
3 6 5 7
3 8 9 10
3 10 9 11
3 12 13 14
3 14 13 15
3 16 17 18
3 18 17 19
3 20 21 22
3 22 21 23
3 24 25 26
3 26 25 27
3 28 29 30
3 30 29 31
3 32 33 34
3 34 33 35
3 36 37 38
3 38 37 39
3 40 41 42
3 42 41 43
3 44 45 46
3 46 45 47
3 48 49 50
3 50 49 51
3 52 53 54
3 54 53 55
3 56 57 58
3 58 57 59
3 60 61 62
3 62 61 63
3 64 65 66
3 66 65 67
3 68 69 70
3 70 69 71
3 72 73 74
3 74 73 75
3 76 77 78
3 78 77 79
3 80 81 82
3 82 81 83
3 84 85 86
3 86 85 87
3 88 89 90
3 90 89 91
3 92 93 94
3 94 93 95
3 45 44 96
3 41 40 97
3 37 36 98
3 33 32 99
3 29 28 100
3 25 24 101
3 21 20 102
3 17 16 103
3 13 12 104
3 9 8 105
3 5 4 106
3 94 95 107
3 90 91 108
3 86 87 109
3 82 83 110
3 78 79 111
3 74 75 112
3 70 71 113
3 66 67 114
3 62 63 115
3 58 59 116
3 54 55 117
3 50 51 118
3 92 94 119
3 119 94 107
3 119 107 120
3 120 107 121
3 120 121 122
3 122 121 123
3 107 124 121
3 121 124 125
3 125 124 108
3 125 108 126
3 126 108 127
3 126 127 128
3 128 127 109
3 128 109 129
3 129 109 130
3 129 130 131
3 131 130 110
3 131 110 132
3 132 110 133
3 132 133 134
3 134 133 111
3 134 111 135
3 135 111 136
3 135 136 137
3 137 136 112
3 137 112 138
3 138 112 139
3 138 139 140
3 140 139 113
3 140 113 141
3 141 113 142
3 141 142 143
3 143 142 114
3 143 114 144
3 144 114 145
3 144 145 146
3 146 145 115
3 146 115 147
3 147 115 148
3 147 148 149
3 149 148 116
3 149 116 150
3 150 116 151
3 150 151 152
3 152 151 117
3 152 117 153
3 153 117 154
3 154 117 155
3 154 155 156
3 156 155 118
3 156 118 157
3 157 118 158
3 88 90 124
3 124 90 108
3 84 86 127
3 127 86 109
3 80 82 130
3 130 82 110
3 76 78 133
3 133 78 111
3 72 74 136
3 136 74 112
3 68 70 139
3 139 70 113
3 64 66 142
3 142 66 114
3 60 62 145
3 145 62 115
3 56 58 148
3 148 58 116
3 52 54 151
3 151 54 117
3 48 50 155
3 155 50 118
3 159 160 156
3 156 160 154
3 161 162 153
3 153 162 152
3 163 164 150
3 150 164 149
3 165 166 147
3 147 166 146
3 167 168 144
3 144 168 143
3 169 170 141
3 141 170 140
3 171 172 138
3 138 172 137
3 173 174 135
3 135 174 134
3 175 176 132
3 132 176 131
3 177 178 129
3 129 178 128
3 179 180 126
3 126 180 125
3 120 181 119
3 119 181 182
3 183 164 184
3 184 164 163
3 185 162 186
3 186 162 161
3 187 160 188
3 188 160 159
3 189 166 190
3 190 166 165
3 191 168 192
3 192 168 167
3 193 170 194
3 194 170 169
3 195 172 196
3 196 172 171
3 197 174 198
3 198 174 173
3 199 176 200
3 200 176 175
3 201 178 202
3 202 178 177
3 203 180 204
3 204 180 179
3 205 122 206
3 206 122 123
3 207 208 209
3 209 208 210
3 211 212 213
3 213 212 214
3 215 216 217
3 217 216 218
3 219 220 221
3 221 220 222
3 223 224 225
3 225 224 226
3 227 228 229
3 229 228 230
3 231 232 233
3 233 232 234
3 235 236 237
3 237 236 238
3 239 240 241
3 241 240 242
3 243 244 245
3 245 244 246
3 247 248 249
3 249 248 250
3 251 252 253
3 253 252 254
3 122 205 120
3 180 203 125
3 178 201 128
3 176 199 131
3 174 197 134
3 172 195 137
3 170 193 140
3 168 191 143
3 166 189 146
3 164 183 149
3 160 187 154
3 186 161 153
3 253 254 255
3 249 250 256
3 245 246 257
3 241 242 258
3 237 238 259
3 233 234 260
3 229 230 261
3 225 226 262
3 221 222 263
3 217 218 264
3 213 214 265
3 209 210 266
3 47 45 267
3 267 45 96
3 267 96 255
3 255 96 268
3 255 268 253
3 253 268 251
3 96 269 268
3 268 269 270
3 255 271 267
3 267 271 97
3 97 271 256
3 97 256 272
3 272 256 273
3 272 273 98
3 98 273 257
3 98 257 274
3 274 257 275
3 274 275 99
3 99 275 258
3 99 258 276
3 276 258 277
3 276 277 100
3 100 277 259
3 100 259 278
3 278 259 279
3 278 279 101
3 101 279 260
3 101 260 280
3 280 260 281
3 280 281 102
3 102 281 261
3 102 261 282
3 282 261 283
3 282 283 103
3 103 283 262
3 103 262 284
3 284 262 285
3 284 285 104
3 104 285 263
3 104 263 286
3 286 263 287
3 286 287 288
3 288 287 264
3 288 264 289
3 289 264 290
3 289 290 291
3 291 290 265
3 291 265 106
3 106 265 292
3 106 292 105
3 105 292 266
3 105 266 293
3 293 266 294
3 293 294 295
3 247 249 271
3 271 249 256
3 243 245 273
3 273 245 257
3 239 241 275
3 275 241 258
3 235 237 277
3 277 237 259
3 231 233 279
3 279 233 260
3 227 229 281
3 281 229 261
3 223 225 283
3 283 225 262
3 219 221 285
3 285 221 263
3 215 217 287
3 287 217 264
3 211 213 290
3 290 213 265
3 207 209 292
3 292 209 266
3 11 9 293
3 293 9 105
3 4 6 106
3 106 6 291
3 3 1 289
3 289 1 288
3 15 13 286
3 286 13 104
3 19 17 284
3 284 17 103
3 23 21 282
3 282 21 102
3 27 25 280
3 280 25 101
3 31 29 278
3 278 29 100
3 35 33 276
3 276 33 99
3 39 37 274
3 274 37 98
3 43 41 272
3 272 41 97
3 10 11 293
3 1 0 288
3 2 3 289
3 119 182 93
3 93 182 269
3 93 269 44
3 44 269 96
3 44 46 93
3 93 46 95
3 95 46 40
3 95 40 89
3 89 40 42
3 89 42 91
3 91 42 36
3 91 36 85
3 85 36 38
3 85 38 87
3 87 38 32
3 87 32 81
3 81 32 34
3 81 34 83
3 83 34 28
3 83 28 77
3 77 28 30
3 77 30 79
3 79 30 24
3 79 24 73
3 73 24 26
3 73 26 75
3 75 26 20
3 75 20 69
3 69 20 22
3 69 22 71
3 71 22 16
3 71 16 65
3 65 16 18
3 65 18 67
3 67 18 12
3 67 12 61
3 61 12 14
3 61 14 63
3 63 14 0
3 63 0 57
3 57 0 2
3 57 2 59
3 59 2 7
3 59 7 53
3 53 7 5
3 53 5 55
3 55 5 49
3 55 49 155
3 267 97 46
3 46 97 40
3 272 98 42
3 42 98 36
3 274 99 38
3 38 99 32
3 276 100 34
3 34 100 28
3 278 101 30
3 30 101 24
3 280 102 26
3 26 102 20
3 282 103 22
3 22 103 16
3 284 104 18
3 18 104 12
3 286 288 14
3 14 288 0
3 289 291 2
3 2 291 7
3 106 105 5
3 5 105 8
3 5 8 49
3 49 8 10
3 49 10 51
3 51 10 295
3 51 295 158
3 10 293 295
3 158 118 51
3 155 117 55
3 151 116 53
3 53 116 59
3 148 115 57
3 57 115 63
3 145 114 61
3 61 114 67
3 142 113 65
3 65 113 71
3 139 112 69
3 69 112 75
3 136 111 73
3 73 111 79
3 133 110 77
3 77 110 83
3 130 109 81
3 81 109 87
3 127 108 85
3 85 108 91
3 124 107 89
3 89 107 95
3 18 19 284
3 26 27 280
3 34 35 276
3 89 88 124
3 93 92 119
3 85 84 127
3 77 76 133
3 69 68 139
3 61 60 145
3 53 52 151
3 49 48 155
3 57 56 148
3 65 64 142
3 73 72 136
3 81 80 130
3 42 43 272
3 46 47 267
3 38 39 274
3 30 31 278
3 22 23 282
3 14 15 286
3 6 7 291
3 252 251 268
3 244 243 273
3 236 235 277
3 228 227 281
3 220 219 285
3 212 211 290
3 188 159 156
3 181 205 270
3 270 205 252
3 270 252 268
3 181 120 205
3 205 206 252
3 252 206 254
3 254 206 203
3 254 203 248
3 248 203 204
3 248 204 250
3 250 204 201
3 250 201 244
3 244 201 202
3 244 202 246
3 246 202 199
3 246 199 240
3 240 199 200
3 240 200 242
3 242 200 197
3 242 197 236
3 236 197 198
3 236 198 238
3 238 198 195
3 238 195 232
3 232 195 196
3 232 196 234
3 234 196 193
3 234 193 228
3 228 193 194
3 228 194 230
3 230 194 191
3 230 191 224
3 224 191 192
3 224 192 226
3 226 192 189
3 226 189 220
3 220 189 190
3 220 190 222
3 222 190 183
3 222 183 216
3 216 183 184
3 216 184 218
3 218 184 185
3 218 185 212
3 212 185 186
3 212 186 214
3 214 186 187
3 214 187 208
3 208 187 188
3 208 188 210
3 210 188 294
3 210 294 266
3 121 125 206
3 206 125 203
3 126 128 204
3 204 128 201
3 129 131 202
3 202 131 199
3 132 134 200
3 200 134 197
3 135 137 198
3 198 137 195
3 138 140 196
3 196 140 193
3 141 143 194
3 194 143 191
3 144 146 192
3 192 146 189
3 147 149 190
3 190 149 183
3 150 152 184
3 184 152 185
3 153 154 186
3 186 154 187
3 156 157 188
3 188 157 294
3 292 265 208
3 208 265 214
3 290 264 212
3 212 264 218
3 287 263 216
3 216 263 222
3 285 262 220
3 220 262 226
3 283 261 224
3 224 261 230
3 281 260 228
3 228 260 234
3 279 259 232
3 232 259 238
3 277 258 236
3 236 258 242
3 275 257 240
3 240 257 246
3 273 256 244
3 244 256 250
3 271 255 248
3 248 255 254
3 184 163 150
3 192 167 144
3 196 171 138
3 200 175 132
3 204 179 126
3 206 123 121
3 202 177 129
3 198 173 135
3 194 169 141
3 190 165 147
3 208 207 292
3 162 185 152
3 216 215 287
3 224 223 283
3 232 231 279
3 240 239 275
3 248 247 271
3 296 297 298
3 298 297 299
3 298 299 300
3 300 301 298
3 302 303 304
3 304 303 305
3 304 305 306
3 304 307 302
3 308 309 310
3 310 309 311
3 310 311 312
3 313 314 312
3 312 314 315
3 312 315 310
3 299 316 300
3 300 316 317
3 304 306 301
3 301 306 318
3 301 318 319
3 300 317 301
3 301 317 304
3 320 321 314
3 314 321 315
3 315 321 322
3 322 321 323
3 321 320 324
3 324 320 325
3 324 325 326
3 326 327 324
3 325 328 326
3 326 328 329
3 308 310 330
3 330 310 329
3 331 332 333
3 333 332 334
3 333 334 335
3 335 334 336
3 335 336 337
3 331 338 332
3 332 338 339
3 339 338 340
3 339 340 341
3 341 340 342
3 342 340 343
3 342 343 344
3 344 343 345
3 344 345 346
3 344 346 347
3 347 346 348
3 347 348 349
3 349 348 350
3 350 348 351
3 350 351 352
3 352 351 353
3 352 353 354
3 352 354 355
3 355 354 356
3 355 356 357
3 357 356 358
3 358 356 359
3 358 359 360
3 360 359 361
3 360 361 313
3 313 312 360
3 335 337 362
3 362 337 363
3 362 363 364
3 364 363 365
3 365 363 366
3 365 366 367
3 367 366 368
3 367 368 369
3 367 369 370
3 370 369 371
3 370 371 372
3 372 371 373
3 373 371 374
3 375 376 377
3 377 376 378
3 377 378 379
3 376 375 380
3 380 375 381
3 380 381 382
3 380 382 383
3 383 382 384
3 383 384 385
3 385 384 386
3 386 384 387
3 386 387 388
3 388 387 389
3 388 389 390
3 388 390 391
3 391 390 392
3 391 392 393
3 393 392 394
3 394 392 395
3 394 395 396
3 396 395 397
3 396 397 398
3 398 399 396
3 377 379 400
3 400 379 401
3 400 401 402
3 402 401 403
3 403 401 404
3 403 404 405
3 405 404 406
3 405 406 407
3 405 407 408
3 408 407 409
3 408 409 410
3 410 409 411
3 411 409 412
3 411 412 413
3 413 412 414
3 413 414 415
3 413 415 416
3 416 415 417
3 416 417 418
3 418 417 419
3 419 417 307
3 419 307 317
3 317 307 304
3 420 323 324
3 324 323 321
3 310 315 327
3 327 315 322
3 327 322 421
3 326 329 327
3 327 329 310
3 421 420 327
3 327 420 324
3 319 422 301
3 301 422 298
3 422 423 298
3 298 423 296
3 297 296 305
3 305 296 306
3 306 296 318
3 318 296 423
3 424 425 426
3 426 425 427
3 426 427 428
3 424 429 425
3 425 430 427
3 427 430 431
3 427 431 432
3 432 431 433
3 432 433 434
3 434 433 435
3 434 435 436
3 436 435 437
3 437 435 438
3 437 438 439
3 437 439 440
3 440 439 441
3 440 441 442
3 442 441 443
3 442 443 444
3 444 443 445
3 445 443 446
3 445 446 447
3 445 447 448
3 448 447 449
3 448 449 450
3 450 449 451
3 450 451 452
3 452 451 453
3 453 451 454
3 453 454 455
3 453 455 456
3 456 455 457
3 456 457 458
3 458 457 459
3 458 459 460
3 460 459 461
3 461 459 462
3 461 462 463
3 461 463 464
3 464 463 465
3 464 465 466
3 466 465 467
3 466 467 468
3 468 467 469
3 469 467 470
3 469 470 471
3 469 471 472
3 472 471 473
3 472 473 474
3 428 475 426
3 476 477 431
3 431 477 433
3 477 478 433
3 433 478 435
3 478 479 435
3 435 479 438
3 479 480 438
3 438 480 439
3 480 481 439
3 439 481 441
3 481 482 441
3 441 482 443
3 482 483 443
3 443 483 446
3 483 484 446
3 446 484 447
3 484 485 447
3 447 485 449
3 485 486 449
3 449 486 451
3 486 487 451
3 451 487 454
3 487 488 454
3 454 488 455
3 488 489 455
3 455 489 457
3 489 490 457
3 457 490 459
3 490 491 459
3 459 491 462
3 491 492 462
3 462 492 463
3 492 493 463
3 463 493 465
3 493 494 465
3 465 494 467
3 494 495 467
3 467 495 470
3 495 496 470
3 470 496 471
3 496 497 471
3 471 497 473
3 497 498 473
3 473 498 474
3 498 499 474
3 474 499 472
3 499 500 472
3 472 500 469
3 500 501 469
3 469 501 468
3 501 502 468
3 468 502 466
3 502 503 466
3 466 503 464
3 503 504 464
3 464 504 461
3 504 505 461
3 461 505 460
3 505 506 460
3 460 506 458
3 506 507 458
3 458 507 456
3 507 508 456
3 456 508 453
3 508 509 453
3 453 509 452
3 509 510 452
3 452 510 450
3 510 511 450
3 450 511 448
3 511 512 448
3 448 512 445
3 512 513 445
3 445 513 444
3 513 514 444
3 444 514 442
3 514 515 442
3 442 515 440
3 515 516 440
3 440 516 437
3 516 517 437
3 437 517 436
3 517 518 436
3 436 518 434
3 518 519 434
3 434 519 432
3 519 520 432
3 432 520 427
3 520 521 427
3 427 521 428
3 521 522 428
3 428 522 475
3 522 523 475
3 475 523 426
3 523 524 426
3 426 524 424
3 525 526 429
3 429 526 425
3 526 527 425
3 425 527 430
3 527 476 430
3 430 476 431
3 528 302 529
3 529 302 530
3 529 530 531
3 531 530 532
3 532 530 533
3 532 533 534
3 528 303 302
3 532 534 535
3 535 534 536
3 535 536 537
3 537 536 538
3 537 538 539
3 539 538 540
3 540 538 541
3 540 541 542
3 540 542 543
3 543 542 544
3 543 544 545
3 545 544 546
3 545 546 547
3 547 546 548
3 548 546 549
3 548 549 550
3 548 550 551
3 551 550 552
3 551 552 553
3 553 552 554
3 553 554 555
3 555 554 556
3 556 554 557
3 556 557 558
3 556 558 559
3 559 558 560
3 559 560 561
3 561 560 562
3 561 562 563
3 563 562 564
3 564 562 565
3 564 565 566
3 564 566 567
3 567 566 568
3 567 568 569
3 569 568 570
3 569 570 571
3 571 570 572
3 572 570 573
3 525 523 526
3 526 523 520
3 526 520 527
3 527 520 519
3 527 519 476
3 476 519 477
3 477 519 518
3 477 518 517
3 525 524 523
3 522 521 523
3 523 521 520
3 477 517 478
3 478 517 516
3 478 516 479
3 479 516 515
3 479 515 480
3 480 515 481
3 481 515 514
3 481 514 513
3 481 513 482
3 482 513 512
3 482 512 483
3 483 512 511
3 483 511 484
3 484 511 485
3 485 511 510
3 485 510 509
3 485 509 486
3 486 509 508
3 486 508 487
3 487 508 507
3 487 507 488
3 488 507 489
3 489 507 506
3 489 506 505
3 489 505 490
3 490 505 504
3 490 504 491
3 491 504 503
3 491 503 492
3 492 503 493
3 493 503 502
3 493 502 501
3 493 501 494
3 494 501 500
3 494 500 495
3 495 500 499
3 495 499 496
3 496 499 497
3 497 499 498
3 316 528 317
3 317 528 529
3 317 529 419
3 529 531 419
3 419 531 418
3 531 532 418
3 418 532 416
3 532 535 416
3 416 535 413
3 535 537 413
3 413 537 411
3 537 539 411
3 411 539 410
3 539 540 410
3 410 540 408
3 540 543 408
3 408 543 405
3 543 545 405
3 405 545 403
3 545 547 403
3 403 547 402
3 547 548 402
3 402 548 400
3 548 551 400
3 400 551 377
3 551 553 377
3 377 553 375
3 553 555 375
3 375 555 381
3 555 556 381
3 381 556 382
3 556 559 382
3 382 559 384
3 559 561 384
3 384 561 387
3 561 563 387
3 387 563 389
3 563 564 389
3 389 564 390
3 564 567 390
3 390 567 392
3 567 569 392
3 392 569 395
3 569 571 395
3 395 571 397
3 571 572 397
3 397 572 398
3 572 573 398
3 398 573 399
3 573 570 399
3 399 570 396
3 570 568 396
3 396 568 394
3 568 566 394
3 394 566 393
3 566 565 393
3 393 565 391
3 565 562 391
3 391 562 388
3 562 560 388
3 388 560 386
3 560 558 386
3 386 558 385
3 558 557 385
3 385 557 383
3 557 554 383
3 383 554 380
3 554 552 380
3 380 552 376
3 552 550 376
3 376 550 378
3 550 549 378
3 378 549 379
3 549 546 379
3 379 546 401
3 546 544 401
3 401 544 404
3 544 542 404
3 404 542 406
3 542 541 406
3 406 541 407
3 541 538 407
3 407 538 409
3 538 536 409
3 409 536 412
3 536 534 412
3 412 534 414
3 534 533 414
3 414 533 415
3 533 530 415
3 415 530 417
3 530 302 417
3 417 302 307
3 528 316 303
3 303 316 305
3 305 316 297
3 297 316 299
3 574 575 576
3 576 575 577
3 577 575 578
3 577 578 579
3 579 578 580
3 579 580 581
3 581 580 582
3 582 580 583
3 582 583 584
3 585 586 575
3 575 586 578
3 582 584 587
3 587 584 588
3 587 588 589
3 589 588 590
3 589 590 591
3 591 590 592
3 592 590 593
3 592 593 594
3 592 594 595
3 595 594 596
3 595 596 597
3 597 596 598
3 597 598 599
3 599 598 600
3 600 598 601
3 600 601 602
3 600 602 603
3 603 602 604
3 603 604 605
3 605 604 606
3 605 606 607
3 607 606 608
3 608 606 609
3 608 609 610
3 608 610 611
3 611 610 612
3 611 612 613
3 613 612 614
3 613 614 615
3 615 614 616
3 616 614 617
3 616 617 618
3 616 618 619
3 619 618 620
3 619 620 621
3 621 620 622
3 621 622 623
3 623 622 624
3 624 622 625
3 626 627 582
3 582 627 581
3 628 626 587
3 587 626 582
3 629 628 589
3 589 628 587
3 630 629 591
3 591 629 589
3 631 630 592
3 592 630 591
3 632 631 595
3 595 631 592
3 633 632 597
3 597 632 595
3 634 633 599
3 599 633 597
3 635 634 600
3 600 634 599
3 636 635 603
3 603 635 600
3 637 636 605
3 605 636 603
3 638 637 607
3 607 637 605
3 639 638 608
3 608 638 607
3 640 639 611
3 611 639 608
3 641 640 613
3 613 640 611
3 642 641 615
3 615 641 613
3 643 642 616
3 616 642 615
3 644 643 619
3 619 643 616
3 645 644 621
3 621 644 619
3 646 645 623
3 623 645 621
3 647 646 624
3 624 646 623
3 648 647 625
3 625 647 624
3 649 648 622
3 622 648 625
3 650 649 620
3 620 649 622
3 651 650 618
3 618 650 620
3 652 651 617
3 617 651 618
3 653 652 614
3 614 652 617
3 654 653 612
3 612 653 614
3 655 654 610
3 610 654 612
3 656 655 609
3 609 655 610
3 657 656 606
3 606 656 609
3 658 657 604
3 604 657 606
3 659 658 602
3 602 658 604
3 660 659 601
3 601 659 602
3 661 660 598
3 598 660 601
3 662 661 596
3 596 661 598
3 663 662 594
3 594 662 596
3 664 663 593
3 593 663 594
3 665 664 590
3 590 664 593
3 666 665 588
3 588 665 590
3 667 666 584
3 584 666 588
3 668 667 583
3 583 667 584
3 669 668 580
3 580 668 583
3 670 669 578
3 578 669 580
3 671 670 586
3 586 670 578
3 672 671 585
3 585 671 586
3 673 672 575
3 575 672 585
3 674 673 574
3 574 673 575
3 675 676 577
3 577 676 576
3 677 675 579
3 579 675 577
3 627 677 581
3 581 677 579
3 309 678 311
3 311 678 679
3 311 679 680
3 311 680 681
3 681 680 682
3 681 682 683
3 683 682 684
3 683 684 685
3 685 684 686
3 686 684 687
3 686 687 688
3 686 688 689
3 689 688 690
3 689 690 691
3 691 690 692
3 691 692 693
3 693 692 694
3 694 692 695
3 694 695 696
3 694 696 697
3 697 696 698
3 697 698 699
3 699 698 700
3 699 700 701
3 701 700 702
3 702 700 703
3 702 703 704
3 702 704 705
3 705 704 706
3 705 706 707
3 707 706 708
3 707 708 709
3 709 708 710
3 710 708 711
3 710 711 712
3 710 712 713
3 713 712 714
3 713 714 715
3 715 714 716
3 715 716 717
3 717 716 718
3 718 716 719
3 718 719 720
3 718 720 721
3 721 720 722
3 721 722 723
3 676 675 674
3 674 675 673
3 673 675 670
3 673 670 671
3 675 677 670
3 670 677 627
3 670 627 669
3 669 627 626
3 669 626 668
3 668 626 628
3 668 628 667
3 667 628 666
3 666 628 629
3 666 629 630
3 666 630 665
3 665 630 631
3 665 631 664
3 664 631 632
3 664 632 663
3 663 632 662
3 662 632 633
3 662 633 634
3 662 634 661
3 661 634 635
3 661 635 660
3 660 635 636
3 660 636 659
3 659 636 658
3 658 636 637
3 658 637 638
3 658 638 657
3 657 638 639
3 657 639 656
3 656 639 640
3 656 640 655
3 655 640 654
3 654 640 641
3 654 641 642
3 654 642 653
3 653 642 643
3 653 643 652
3 652 643 644
3 652 644 651
3 651 644 650
3 650 644 645
3 650 645 646
3 650 646 649
3 649 646 647
3 649 647 648
3 671 672 673
3 328 679 329
3 329 679 678
3 329 678 330
3 361 680 313
3 313 680 679
3 313 679 328
3 325 320 328
3 328 320 314
3 328 314 313
3 682 680 359
3 359 680 361
3 684 682 356
3 356 682 359
3 687 684 354
3 354 684 356
3 688 687 353
3 353 687 354
3 690 688 351
3 351 688 353
3 692 690 348
3 348 690 351
3 695 692 346
3 346 692 348
3 696 695 345
3 345 695 346
3 698 696 343
3 343 696 345
3 700 698 340
3 340 698 343
3 703 700 338
3 338 700 340
3 704 703 331
3 331 703 338
3 706 704 333
3 333 704 331
3 708 706 335
3 335 706 333
3 711 708 362
3 362 708 335
3 712 711 364
3 364 711 362
3 714 712 365
3 365 712 364
3 716 714 367
3 367 714 365
3 719 716 370
3 370 716 367
3 720 719 372
3 372 719 370
3 722 720 373
3 373 720 372
3 723 722 374
3 374 722 373
3 721 723 371
3 371 723 374
3 718 721 369
3 369 721 371
3 717 718 368
3 368 718 369
3 715 717 366
3 366 717 368
3 713 715 363
3 363 715 366
3 710 713 337
3 337 713 363
3 709 710 336
3 336 710 337
3 707 709 334
3 334 709 336
3 705 707 332
3 332 707 334
3 702 705 339
3 339 705 332
3 701 702 341
3 341 702 339
3 699 701 342
3 342 701 341
3 697 699 344
3 344 699 342
3 694 697 347
3 347 697 344
3 693 694 349
3 349 694 347
3 691 693 350
3 350 693 349
3 689 691 352
3 352 691 350
3 686 689 355
3 355 689 352
3 685 686 357
3 357 686 355
3 683 685 358
3 358 685 357
3 681 683 360
3 360 683 358
3 311 681 312
3 312 681 360
3 678 309 330
3 330 309 308
3 420 269 323
3 323 269 182
3 323 182 525
3 525 182 524
3 524 182 181
3 524 181 422
3 422 181 270
3 422 270 423
3 423 270 674
3 423 674 318
3 318 674 574
3 318 574 424
3 424 574 576
3 424 576 429
3 429 576 421
3 429 421 322
3 269 420 676
3 676 420 421
3 676 421 576
3 429 322 525
3 525 322 323
3 422 319 524
3 524 319 424
3 424 319 318
3 270 269 674
3 674 269 676
3 295 294 158
3 158 294 157

CELL_TYPES 1444
5
5
5
5
5
5
5
5
5
5
5
5
5
5
5
5
5
5
5
5
5
5
5
5
5
5
5
5
5
5
5
5
5
5
5
5
5
5
5
5
5
5
5
5
5
5
5
5
5
5
5
5
5
5
5
5
5
5
5
5
5
5
5
5
5
5
5
5
5
5
5
5
5
5
5
5
5
5
5
5
5
5
5
5
5
5
5
5
5
5
5
5
5
5
5
5
5
5
5
5
5
5
5
5
5
5
5
5
5
5
5
5
5
5
5
5
5
5
5
5
5
5
5
5
5
5
5
5
5
5
5
5
5
5
5
5
5
5
5
5
5
5
5
5
5
5
5
5
5
5
5
5
5
5
5
5
5
5
5
5
5
5
5
5
5
5
5
5
5
5
5
5
5
5
5
5
5
5
5
5
5
5
5
5
5
5
5
5
5
5
5
5
5
5
5
5
5
5
5
5
5
5
5
5
5
5
5
5
5
5
5
5
5
5
5
5
5
5
5
5
5
5
5
5
5
5
5
5
5
5
5
5
5
5
5
5
5
5
5
5
5
5
5
5
5
5
5
5
5
5
5
5
5
5
5
5
5
5
5
5
5
5
5
5
5
5
5
5
5
5
5
5
5
5
5
5
5
5
5
5
5
5
5
5
5
5
5
5
5
5
5
5
5
5
5
5
5
5
5
5
5
5
5
5
5
5
5
5
5
5
5
5
5
5
5
5
5
5
5
5
5
5
5
5
5
5
5
5
5
5
5
5
5
5
5
5
5
5
5
5
5
5
5
5
5
5
5
5
5
5
5
5
5
5
5
5
5
5
5
5
5
5
5
5
5
5
5
5
5
5
5
5
5
5
5
5
5
5
5
5
5
5
5
5
5
5
5
5
5
5
5
5
5
5
5
5
5
5
5
5
5
5
5
5
5
5
5
5
5
5
5
5
5
5
5
5
5
5
5
5
5
5
5
5
5
5
5
5
5
5
5
5
5
5
5
5
5
5
5
5
5
5
5
5
5
5
5
5
5
5
5
5
5
5
5
5
5
5
5
5
5
5
5
5
5
5
5
5
5
5
5
5
5
5
5
5
5
5
5
5
5
5
5
5
5
5
5
5
5
5
5
5
5
5
5
5
5
5
5
5
5
5
5
5
5
5
5
5
5
5
5
5
5
5
5
5
5
5
5
5
5
5
5
5
5
5
5
5
5
5
5
5
5
5
5
5
5
5
5
5
5
5
5
5
5
5
5
5
5
5
5
5
5
5
5
5
5
5
5
5
5
5
5
5
5
5
5
5
5
5
5
5
5
5
5
5
5
5
5
5
5
5
5
5
5
5
5
5
5
5
5
5
5
5
5
5
5
5
5
5
5
5
5
5
5
5
5
5
5
5
5
5
5
5
5
5
5
5
5
5
5
5
5
5
5
5
5
5
5
5
5
5
5
5
5
5
5
5
5
5
5
5
5
5
5
5
5
5
5
5
5
5
5
5
5
5
5
5
5
5
5
5
5
5
5
5
5
5
5
5
5
5
5
5
5
5
5
5
5
5
5
5
5
5
5
5
5
5
5
5
5
5
5
5
5
5
5
5
5
5
5
5
5
5
5
5
5
5
5
5
5
5
5
5
5
5
5
5
5
5
5
5
5
5
5
5
5
5
5
5
5
5
5
5
5
5
5
5
5
5
5
5
5
5
5
5
5
5
5
5
5
5
5
5
5
5
5
5
5
5
5
5
5
5
5
5
5
5
5
5
5
5
5
5
5
5
5
5
5
5
5
5
5
5
5
5
5
5
5
5
5
5
5
5
5
5
5
5
5
5
5
5
5
5
5
5
5
5
5
5
5
5
5
5
5
5
5
5
5
5
5
5
5
5
5
5
5
5
5
5
5
5
5
5
5
5
5
5
5
5
5
5
5
5
5
5
5
5
5
5
5
5
5
5
5
5
5
5
5
5
5
5
5
5
5
5
5
5
5
5
5
5
5
5
5
5
5
5
5
5
5
5
5
5
5
5
5
5
5
5
5
5
5
5
5
5
5
5
5
5
5
5
5
5
5
5
5
5
5
5
5
5
5
5
5
5
5
5
5
5
5
5
5
5
5
5
5
5
5
5
5
5
5
5
5
5
5
5
5
5
5
5
5
5
5
5
5
5
5
5
5
5
5
5
5
5
5
5
5
5
5
5
5
5
5
5
5
5
5
5
5
5
5
5
5
5
5
5
5
5
5
5
5
5
5
5
5
5
5
5
5
5
5
5
5
5
5
5
5
5
5
5
5
5
5
5
5
5
5
5
5
5
5
5
5
5
5
5
5
5
5
5
5
5
5
5
5
5
5
5
5
5
5
5
5
5
5
5
5
5
5
5
5
5
5
5
5
5
5
5
5
5
5
5
5
5
5
5
5
5
5
5
5
5
5
5
5
5
5
5
5
5
5
5
5
5
5
5
5
5
5
5
5
5
5
5
5
5
5
5
5
5
5
5
5
5
5
5
5
5
5
5
5
5
5
5
5
5
5
5
5
5
5
5
5
5
5
5
5
5
5
5
5
5
5
5
5
5
5
5
5
5
5
5
5
5
5
5
5
5
5
5
5
5
5
5
5
5
5
5
5
5
5
5
5
5
5
5
5
5
5
5
5
5
5
5
5
5
5
5
5
5
5
5
5
5
5
5
5
5
5
5
5
5
5
5
5
5
5
5
5
5
5
5
5
5
5
5
5
5
5
5
5
5
5
5
5
5
5
5
5
5
5
5
5
5
5
5
5
5
5
5
5
5
5
5
5
5
5
5
5
5
5
5
5
5
5
5
5
5
5
5
5
5
5
5
5
5
5
5
5
5
5
5
5
5
5
5
5
5
5
5
5
5
5
5
5
5
5
5
5
5
5
5
5
5
5
5
5
5
5
5
5
5
5
5
5
5
5
5
5
5
5
5
5
5
5
5
5
5
5
5
5
5
5
5
5
5
5
5
5
5
5
5
5
5
5
5
5
5
5
5
5
5
5
5
5
5
5
5
5
5
5
5
5
5
5
5
5
5
5
5
5
5
5
5
5
5
5
5
5
5
5
5
5
5
5
5
5
5
5
5
5
5
5
5
5
5
5
5
5
5
5
5
5
5
5
5
5
5
5
5
5
5
5
5
5
5
5
5
5
5
5
5
5
5
5
5
5
5
5
5
5
5
5
5
5
5
5
5
5
5
5
5
5
5
5
5
5
5
5
5
5
5
5
5
5
5
5
5
5
5
5
5
5
5
5
5
5
5
5
5
5
5
