# WaveFront *.obj file (generated by Autodesk ATF)

mtllib pipe.mtl

g Body2

v -8.485281 56.870058 0.000000
v -8.364811 56.990528 1.294095
v -8.011610 57.343729 2.500000
v -7.449747 57.905592 3.535534
v -6.717514 58.637825 4.330127
v -5.864811 59.490528 4.829629
v -4.949747 60.405592 5.000000
v -4.034684 61.320655 4.829629
v -3.181981 62.173359 4.330127
v -2.449747 62.905592 3.535534
v -1.887885 63.467454 2.500000
v -1.534684 63.820655 1.294095
v -1.414214 63.941125 0.000000
v -1.534684 63.820655 -1.294095
v -1.887885 63.467454 -2.500000
v -2.449747 62.905592 -3.535534
v -3.181981 62.173359 -4.330127
v -4.034684 61.320655 -4.829629
v -4.949747 60.405592 -5.000000
v -5.864811 59.490528 -4.829629
v -6.717514 58.637825 -4.330127
v -7.449747 57.905592 -3.535534
v -8.011610 57.343729 -2.500000
v -8.364811 56.990528 -1.294095
v 12.727922 42.727922 5.000000
v 11.348425 42.727922 4.903926
v 10.021942 42.727922 4.619398
v 8.799447 42.727922 4.157348
v 7.727922 42.727922 3.535534
v 6.848544 42.727922 2.777851
v 6.195107 42.727922 1.913417
v 5.792723 42.727922 0.975452
v 5.690903 42.727922 0.490086
v 5.656854 42.727922 -0.000000
v 5.690903 42.727922 -0.490086
v 5.792723 42.727922 -0.975452
v 6.195107 42.727922 -1.913417
v 6.848544 42.727922 -2.777851
v 7.727922 42.727922 -3.535534
v 8.799447 42.727922 -4.157348
v 10.021942 42.727922 -4.619398
v 11.348425 42.727922 -4.903926
v 12.727922 42.727922 -5.000000
v 14.107419 42.727922 -4.903926
v 15.433903 42.727922 -4.619398
v 16.656397 42.727922 -4.157348
v 17.727922 42.727922 -3.535534
v 18.607300 42.727922 -2.777851
v 19.260737 42.727922 -1.913417
v 19.663121 42.727922 -0.975452
v 19.764941 42.727922 -0.490086
v 19.798990 42.727922 0.000000
v 19.764941 42.727922 0.490086
v 19.663121 42.727922 0.975452
v 19.260737 42.727922 1.913417
v 18.607300 42.727922 2.777851
v 17.727922 42.727922 3.535534
v 16.656397 42.727922 4.157348
v 15.433903 42.727922 4.619398
v 14.107419 42.727922 4.903926
v -1.414214 49.798990 -0.000000
v -1.293743 49.919460 1.294095
v 5.777325 42.848392 1.294095
v -0.940542 50.272662 2.500000
v 6.130526 43.201594 2.500000
v -0.378680 50.834524 3.535534
v 6.692388 43.763456 3.535534
v 0.353553 51.566757 4.330127
v 7.424621 44.495689 4.330127
v 1.206257 52.419460 4.829629
v 8.277325 45.348392 4.829629
v 2.121320 53.334524 5.000000
v 9.192388 46.263456 5.000000
v 3.036384 54.249587 4.829629
v 10.107452 47.178519 4.829629
v 3.889087 55.102291 4.330127
v 10.960155 48.031223 4.330127
v 4.621320 55.834524 3.535534
v 11.692388 48.763456 3.535534
v 5.183183 56.396386 2.500000
v 12.254250 49.325318 2.500000
v 5.536384 56.749587 1.294095
v 12.607452 49.678519 1.294095
v 5.656854 56.870058 0.000000
v 12.727922 49.798990 0.000000
v 5.536384 56.749587 -1.294095
v 12.607452 49.678519 -1.294095
v 5.183183 56.396386 -2.500000
v 12.254250 49.325318 -2.500000
v 4.621320 55.834524 -3.535534
v 11.692388 48.763456 -3.535534
v 3.889087 55.102291 -4.330127
v 10.960155 48.031223 -4.330127
v 3.036384 54.249587 -4.829629
v 10.107452 47.178519 -4.829629
v 2.121320 53.334524 -5.000000
v 9.192388 46.263456 -5.000000
v 1.206257 52.419460 -4.829629
v 8.277325 45.348392 -4.829629
v 0.353553 51.566757 -4.330127
v 7.424621 44.495689 -4.330127
v -0.378680 50.834524 -3.535534
v 6.692388 43.763456 -3.535534
v -0.940542 50.272662 -2.500000
v 6.130526 43.201594 -2.500000
v -1.293743 49.919460 -1.294095
v 5.777325 42.848392 -1.294095
v -0.000000 30.000000 5.000000
v -1.294095 30.536032 4.829629
v -2.500000 31.035534 4.330127
v -3.535534 31.464466 3.535534
v -4.330127 31.793597 2.500000
v -4.829629 32.000498 1.294095
v -5.000000 32.071068 0.000000
v -4.829629 32.000498 -1.294095
v -4.330127 31.793597 -2.500000
v -3.535534 31.464466 -3.535534
v -2.500000 31.035534 -4.330127
v -1.294095 30.536032 -4.829629
v 0.000000 30.000000 -5.000000
v 1.294095 29.463968 -4.829629
v 2.500000 28.964466 -4.330127
v 3.535534 28.535534 -3.535534
v 4.330127 28.206403 -2.500000
v 4.829629 27.999502 -1.294095
v 5.000000 27.928932 0.000000
v 4.829629 27.999502 1.294095
v 4.330127 28.206403 2.500000
v 3.535534 28.535534 3.535534
v 2.500000 28.964466 4.330127
v 1.294095 29.463968 4.829629
v 0.909307 37.980375 0.000000
v 4.444841 34.444841 -5.000000
v 10.354149 40.354149 -5.000000
v 9.439085 41.269212 -4.829629
v 3.529778 35.359905 -4.829629
v 8.586382 42.121916 -4.330127
v 2.677074 36.212608 -4.330127
v 1.944841 36.944841 -3.535534
v 1.382979 37.506703 -2.500000
v 1.029778 37.859905 -1.294095
v 1.029778 37.859905 1.294095
v 1.382979 37.506703 2.500000
v 1.944841 36.944841 3.535534
v 8.586382 42.121916 4.330127
v 2.677074 36.212608 4.330127
v 9.439085 41.269212 4.829629
v 3.529778 35.359905 4.829629
v 10.354149 40.354149 5.000000
v 4.444841 34.444841 5.000000
v 11.269212 39.439085 4.829629
v 5.359905 33.529778 4.829629
v 12.121916 38.586382 4.330127
v 6.212608 32.677074 4.330127
v 12.854149 37.854149 3.535534
v 6.944841 31.944841 3.535534
v 13.416011 37.292286 2.500000
v 7.506703 31.382979 2.500000
v 13.769212 36.939085 1.294095
v 7.859905 31.029778 1.294095
v 13.889683 36.818615 0.000000
v 7.980375 30.909307 0.000000
v 13.769212 36.939085 -1.294095
v 7.859905 31.029778 -1.294095
v 13.416011 37.292286 -2.500000
v 7.506703 31.382979 -2.500000
v 12.854149 37.854149 -3.535534
v 6.944841 31.944841 -3.535534
v 12.121916 38.586382 -4.330127
v 6.212608 32.677074 -4.330127
v 11.269212 39.439085 -4.829629
v 5.359905 33.529778 -4.829629
v -5.000000 0.000000 0.000000
v -4.829629 0.000000 -1.294095
v -4.330127 0.000000 -2.500000
v -3.535534 0.000000 -3.535534
v -2.500000 0.000000 -4.330127
v -1.294095 0.000000 -4.829629
v 0.000000 0.000000 -5.000000
v 1.294095 0.000000 -4.829629
v 2.500000 0.000000 -4.330127
v 3.535534 0.000000 -3.535534
v 4.330127 0.000000 -2.500000
v 4.829629 0.000000 -1.294095
v 5.000000 0.000000 0.000000
v 4.829629 0.000000 1.294095
v 4.330127 0.000000 2.500000
v 3.535534 0.000000 3.535534
v 2.500000 0.000000 4.330127
v 1.294095 0.000000 4.829629
v 0.000000 0.000000 5.000000
v -1.294095 0.000000 4.829629
v -2.500000 0.000000 4.330127
v -3.535534 0.000000 3.535534
v -4.330127 0.000000 2.500000
v -4.829629 0.000000 1.294095
v -5.000000 10.690356 0.000000
v -5.000000 21.380712 0.000000
v -4.829629 10.690356 -1.294095
v -4.829629 21.380712 -1.294095
v -4.330127 10.690356 -2.500000
v -4.330127 21.380712 -2.500000
v -3.535534 10.690356 -3.535534
v -3.535534 21.380712 -3.535534
v -2.500000 10.690356 -4.330127
v -2.500000 21.380712 -4.330127
v -1.294095 10.690356 -4.829629
v -1.294095 21.380712 -4.829629
v 0.000000 10.690356 -5.000000
v 0.000000 21.380712 -5.000000
v 1.294095 10.690356 -4.829629
v 1.294095 21.380712 -4.829629
v 2.500000 10.690356 -4.330127
v 2.500000 21.380712 -4.330127
v 3.535534 10.690356 -3.535534
v 3.535534 21.380712 -3.535534
v 4.330127 10.690356 -2.500000
v 4.330127 21.380712 -2.500000
v 4.829629 10.690356 -1.294095
v 4.829629 21.380712 -1.294095
v 5.000000 10.690356 0.000000
v 5.000000 21.380712 0.000000
v 4.829629 10.690356 1.294095
v 4.829629 21.380712 1.294095
v 4.330127 10.690356 2.500000
v 4.330127 21.380712 2.500000
v 3.535534 10.690356 3.535534
v 3.535534 21.380712 3.535534
v 2.500000 10.690356 4.330127
v 2.500000 21.380712 4.330127
v 1.294095 10.690356 4.829629
v 1.294095 21.380712 4.829629
v 0.000000 10.690356 5.000000
v 0.000000 21.380712 5.000000
v -1.294095 10.690356 4.829629
v -1.294095 21.380712 4.829629
v -2.500000 10.690356 4.330127
v -2.500000 21.380712 4.330127
v -3.535534 10.690356 3.535534
v -3.535534 21.380712 3.535534
v -4.330127 10.690356 2.500000
v -4.330127 21.380712 2.500000
v -4.829629 10.690356 1.294095
v -4.829629 21.380712 1.294095
v -8.520637 56.834702 0.000000
v -8.398962 56.956377 -1.307036
v -8.042228 57.313111 -2.525000
v -7.474747 57.880592 -3.570889
v -6.735192 58.620147 -4.373428
v -5.873962 59.481377 -4.877925
v -4.949747 60.405592 -5.050000
v -4.025533 61.329806 -4.877925
v -3.164303 62.191036 -4.373428
v -2.424747 62.930592 -3.570889
v -1.857267 63.498072 -2.525000
v -1.500533 63.854806 -1.307036
v -1.378858 63.976481 0.000000
v -1.500533 63.854806 1.307036
v -1.857267 63.498072 2.525000
v -2.424747 62.930592 3.570889
v -3.164303 62.191036 4.373428
v -4.025533 61.329806 4.877925
v -4.949747 60.405592 5.050000
v -5.873962 59.481377 4.877925
v -6.735192 58.620147 4.373428
v -7.474747 57.880592 3.570889
v -8.042228 57.313111 2.525000
v -8.398962 56.956377 1.307036
v 12.727922 42.727922 -5.050000
v 11.334630 42.727922 -4.952966
v 9.994882 42.727922 -4.665592
v 8.760163 42.727922 -4.198922
v 7.677922 42.727922 -3.570889
v 6.789750 42.727922 -2.805630
v 6.129779 42.727922 -1.932551
v 5.723371 42.727922 -0.985206
v 5.620533 42.727922 -0.494987
v 5.586144 42.727922 -0.000000
v 5.620533 42.727922 0.494987
v 5.723371 42.727922 0.985206
v 6.129779 42.727922 1.932551
v 6.789750 42.727922 2.805630
v 7.677922 42.727922 3.570889
v 8.760163 42.727922 4.198922
v 9.994882 42.727922 4.665592
v 11.334630 42.727922 4.952966
v 12.727922 42.727922 5.050000
v 14.121214 42.727922 4.952966
v 15.460962 42.727922 4.665592
v 16.695682 42.727922 4.198922
v 17.777922 42.727922 3.570889
v 18.666094 42.727922 2.805630
v 19.326065 42.727922 1.932551
v 19.732473 42.727922 0.985206
v 19.835311 42.727922 0.494987
v 19.869701 42.727922 0.000000
v 19.835311 42.727922 -0.494987
v 19.732473 42.727922 -0.985206
v 19.326065 42.727922 -1.932551
v 18.666094 42.727922 -2.805630
v 17.777922 42.727922 -3.570889
v 16.695682 42.727922 -4.198922
v 15.460962 42.727922 -4.665592
v 14.121214 42.727922 -4.952966
v -1.437784 49.751849 0.000000
v -1.316109 49.873525 -1.307036
v 5.766744 42.790672 -1.307036
v -0.959375 50.230258 -2.525000
v 6.123478 43.147405 -2.525000
v -0.391895 50.797739 -3.570889
v 6.690958 43.714886 -3.570889
v 0.347661 51.537294 -4.373428
v 7.430514 44.454441 -4.373428
v 1.208891 52.398525 -4.877925
v 8.291744 45.315672 -4.877925
v 2.133105 53.322739 -5.050000
v 9.215958 46.239886 -5.050000
v 3.057320 54.246953 -4.877925
v 10.140173 47.164100 -4.877925
v 3.918550 55.108183 -4.373428
v 11.001403 48.025330 -4.373428
v 4.658105 55.847739 -3.570889
v 11.740958 48.764886 -3.570889
v 5.225586 56.415219 -2.525000
v 12.308439 49.332367 -2.525000
v 5.582320 56.771953 -1.307036
v 12.665173 49.689100 -1.307036
v 5.703995 56.893628 0.000000
v 12.786848 49.810775 0.000000
v 5.582320 56.771953 1.307036
v 12.665173 49.689100 1.307036
v 5.225586 56.415219 2.525000
v 12.308439 49.332367 2.525000
v 4.658105 55.847739 3.570889
v 11.740958 48.764886 3.570889
v 3.918550 55.108183 4.373428
v 11.001403 48.025330 4.373428
v 3.057320 54.246953 4.877925
v 10.140173 47.164100 4.877925
v 2.133105 53.322739 5.050000
v 9.215958 46.239886 5.050000
v 1.208891 52.398525 4.877925
v 8.291744 45.315672 4.877925
v 0.347661 51.537294 4.373428
v 7.430514 44.454441 4.373428
v -0.391895 50.797739 3.570889
v 6.690958 43.714886 3.570889
v -0.959375 50.230258 2.525000
v 6.123478 43.147405 2.525000
v -1.316109 49.873525 1.307036
v 5.766744 42.790672 1.307036
v -0.000000 30.000000 -5.050000
v -1.307036 30.541392 -4.877925
v -2.525000 31.045889 -4.373428
v -3.570889 31.479111 -3.570889
v -4.373428 31.811533 -2.525000
v -4.877925 32.020503 -1.307036
v -5.050000 32.091778 0.000000
v -4.877925 32.020503 1.307036
v -4.373428 31.811533 2.525000
v -3.570889 31.479111 3.570889
v -2.525000 31.045889 4.373428
v -1.307036 30.541392 4.877925
v 0.000000 30.000000 5.050000
v 1.307036 29.458608 4.877925
v 2.525000 28.954111 4.373428
v 3.570889 28.520889 3.570889
v 4.373428 28.188467 2.525000
v 4.877925 27.979497 1.307036
v 5.050000 27.908222 0.000000
v 4.877925 27.979497 -1.307036
v 4.373428 28.188467 -2.525000
v 3.570889 28.520889 -3.570889
v 2.525000 28.954111 -4.373428
v 1.307036 29.458608 -4.877925
v 0.875974 38.017753 -0.000000
v 4.446863 34.446863 5.050000
v 10.372837 40.372837 5.050000
v 9.448623 41.297051 4.877925
v 3.522649 35.371077 4.877925
v 8.587393 42.158282 4.373428
v 2.661419 36.232308 4.373428
v 1.921863 36.971863 3.570889
v 1.354382 37.539344 2.525000
v 0.997649 37.896077 1.307036
v 0.997649 37.896077 -1.307036
v 1.354382 37.539344 -2.525000
v 1.921863 36.971863 -3.570889
v 8.587393 42.158282 -4.373428
v 2.661419 36.232308 -4.373428
v 9.448623 41.297051 -4.877925
v 3.522649 35.371077 -4.877925
v 10.372837 40.372837 -5.050000
v 4.446863 34.446863 -5.050000
v 11.297051 39.448623 -4.877925
v 5.371077 33.522649 -4.877925
v 12.158282 38.587393 -4.373428
v 6.232308 32.661419 -4.373428
v 12.897837 37.847837 -3.570889
v 6.971863 31.921863 -3.570889
v 13.465318 37.280356 -2.525000
v 7.539344 31.354382 -2.525000
v 13.822051 36.923623 -1.307036
v 7.896077 30.997649 -1.307036
v 13.943727 36.801948 0.000000
v 8.017753 30.875974 0.000000
v 13.822051 36.923623 1.307036
v 7.896077 30.997649 1.307036
v 13.465318 37.280356 2.525000
v 7.539344 31.354382 2.525000
v 12.897837 37.847837 3.570889
v 6.971863 31.921863 3.570889
v 12.158282 38.587393 4.373428
v 6.232308 32.661419 4.373428
v 11.297051 39.448623 4.877925
v 5.371077 33.522649 4.877925
v -5.050000 0.000000 0.000000
v -4.877925 0.000000 1.307036
v -4.373428 0.000000 2.525000
v -3.570889 0.000000 3.570889
v -2.525000 0.000000 4.373428
v -1.307036 0.000000 4.877925
v 0.000000 0.000000 5.050000
v 1.307036 0.000000 4.877925
v 2.525000 0.000000 4.373428
v 3.570889 0.000000 3.570889
v 4.373428 0.000000 2.525000
v 4.877925 0.000000 1.307036
v 5.050000 0.000000 0.000000
v 4.877925 0.000000 -1.307036
v 4.373428 0.000000 -2.525000
v 3.570889 0.000000 -3.570889
v 2.525000 0.000000 -4.373428
v 1.307036 0.000000 -4.877925
v 0.000000 0.000000 -5.050000
v -1.307036 0.000000 -4.877925
v -2.525000 0.000000 -4.373428
v -3.570889 0.000000 -3.570889
v -4.373428 0.000000 -2.525000
v -4.877925 0.000000 -1.307036
v -5.050000 10.697259 -0.000000
v -5.050000 21.394519 -0.000000
v -4.877925 10.697259 1.307036
v -4.877925 21.394519 1.307036
v -4.373428 10.697259 2.525000
v -4.373428 21.394519 2.525000
v -3.570889 10.697259 3.570889
v -3.570889 21.394519 3.570889
v -2.525000 10.697259 4.373428
v -2.525000 21.394519 4.373428
v -1.307036 10.697259 4.877925
v -1.307036 21.394519 4.877925
v 0.000000 10.697259 5.050000
v 0.000000 21.394519 5.050000
v 1.307036 10.697259 4.877925
v 1.307036 21.394519 4.877925
v 2.525000 10.697259 4.373428
v 2.525000 21.394519 4.373428
v 3.570889 10.697259 3.570889
v 3.570889 21.394519 3.570889
v 4.373428 10.697259 2.525000
v 4.373428 21.394519 2.525000
v 4.877925 10.697259 1.307036
v 4.877925 21.394519 1.307036
v 5.050000 10.697259 0.000000
v 5.050000 21.394519 0.000000
v 4.877925 10.697259 -1.307036
v 4.877925 21.394519 -1.307036
v 4.373428 10.697259 -2.525000
v 4.373428 21.394519 -2.525000
v 3.570889 10.697259 -3.570889
v 3.570889 21.394519 -3.570889
v 2.525000 10.697259 -4.373428
v 2.525000 21.394519 -4.373428
v 1.307036 10.697259 -4.877925
v 1.307036 21.394519 -4.877925
v 0.000000 10.697259 -5.050000
v 0.000000 21.394519 -5.050000
v -1.307036 10.697259 -4.877925
v -1.307036 21.394519 -4.877925
v -2.525000 10.697259 -4.373428
v -2.525000 21.394519 -4.373428
v -3.570889 10.697259 -3.570889
v -3.570889 21.394519 -3.570889
v -4.373428 10.697259 -2.525000
v -4.373428 21.394519 -2.525000
v -4.877925 10.697259 -1.307036
v -4.877925 21.394519 -1.307036
vt 25.000000 -14.398966 0.000000
vt 15.000000 -14.398966 0.000000
vt 25.000000 -15.707963 0.000000
vt 15.000000 -15.707963 0.000000
vt 25.000000 15.707963 0.000000
vt 15.000000 15.707963 0.000000
vt 25.000000 14.398966 0.000000
vt 15.000000 14.398966 0.000000
vt 25.000000 13.089969 0.000000
vt 15.000000 13.089969 0.000000
vt 25.000000 11.780972 0.000000
vt 15.000000 11.780972 0.000000
vt 25.000000 10.471976 0.000000
vt 15.000000 10.471976 0.000000
vt 25.000000 9.162979 0.000000
vt 15.000000 9.162979 0.000000
vt 25.000000 7.853982 0.000000
vt 15.000000 7.853982 0.000000
vt 25.000000 6.544985 0.000000
vt 15.000000 6.544985 0.000000
vt 25.000000 5.235988 0.000000
vt 15.000000 5.235988 0.000000
vt 25.000000 3.926991 0.000000
vt 15.000000 3.926991 0.000000
vt 25.000000 2.617994 0.000000
vt 15.000000 2.617994 0.000000
vt 25.000000 1.308997 0.000000
vt 15.000000 1.308997 0.000000
vt 25.000000 0.000000 0.000000
vt 15.000000 0.000000 0.000000
vt 25.000000 -1.308997 0.000000
vt 15.000000 -1.308997 0.000000
vt 25.000000 -2.617994 0.000000
vt 15.000000 -2.617994 0.000000
vt 25.000000 -3.926991 0.000000
vt 15.000000 -3.926991 0.000000
vt 25.000000 -5.235988 0.000000
vt 15.000000 -5.235988 0.000000
vt 25.000000 -6.544985 0.000000
vt 15.000000 -6.544985 0.000000
vt 25.000000 -7.853982 0.000000
vt 15.000000 -7.853982 0.000000
vt 25.000000 -9.162979 0.000000
vt 15.000000 -9.162979 0.000000
vt 25.000000 -10.471976 0.000000
vt 15.000000 -10.471976 0.000000
vt 25.000000 -11.780972 0.000000
vt 15.000000 -11.780972 0.000000
vt 25.000000 -13.089969 0.000000
vt 15.000000 -13.089969 0.000000
vt -0.975452 -6.872234 0.000000
vt 0.000000 -7.853982 0.000000
vt 5.000000 -7.853982 0.000000
vt 0.975452 -8.835729 0.000000
vt 5.000000 -9.162979 0.000000
vt 1.913417 -9.817477 0.000000
vt 5.000000 -10.471976 0.000000
vt 2.777851 -10.799225 0.000000
vt 5.000000 -11.780972 0.000000
vt 3.535534 -11.780972 0.000000
vt 4.157348 -12.762720 0.000000
vt 4.619398 -13.744468 0.000000
vt 5.000000 -13.089969 0.000000
vt 4.903926 -14.726216 0.000000
vt 5.000000 -14.398966 0.000000
vt 4.975924 -15.217089 0.000000
vt 5.000000 -15.707963 0.000000
vt 5.000000 15.707963 0.000000
vt 4.975924 15.217089 0.000000
vt 4.903926 14.726216 0.000000
vt 5.000000 14.398966 0.000000
vt 4.619398 13.744468 0.000000
vt 5.000000 13.089969 0.000000
vt 4.157348 12.762720 0.000000
vt 5.000000 11.780972 0.000000
vt 3.535534 11.780972 0.000000
vt 2.777851 10.799225 0.000000
vt 5.000000 10.471976 0.000000
vt 1.913417 9.817477 0.000000
vt 5.000000 9.162979 0.000000
vt 0.975452 8.835729 0.000000
vt 5.000000 7.853982 0.000000
vt 0.000000 7.853982 0.000000
vt -0.975452 6.872234 0.000000
vt 5.000000 6.544985 0.000000
vt -1.913417 5.890486 0.000000
vt 5.000000 5.235988 0.000000
vt -2.777851 4.908739 0.000000
vt 5.000000 3.926991 0.000000
vt -3.535534 3.926991 0.000000
vt -4.157348 2.945243 0.000000
vt 5.000000 2.617994 0.000000
vt -4.619398 1.963495 0.000000
vt 5.000000 1.308997 0.000000
vt -4.903926 0.981748 0.000000
vt -4.975924 0.490874 0.000000
vt 5.000000 0.000000 0.000000
vt -5.000000 0.000000 0.000000
vt -4.975924 -0.490874 0.000000
vt 5.000000 -1.308997 0.000000
vt -4.903926 -0.981748 0.000000
vt -4.619398 -1.963495 0.000000
vt 5.000000 -2.617994 0.000000
vt -4.157348 -2.945243 0.000000
vt 5.000000 -3.926991 0.000000
vt -3.535534 -3.926991 0.000000
vt -2.777851 -4.908739 0.000000
vt 5.000000 -5.235988 0.000000
vt -1.913417 -5.890486 0.000000
vt 5.000000 -6.544985 0.000000
vt 18.975452 6.872234 0.000000
vt 18.000000 7.853982 0.000000
vt 14.642977 7.853982 0.000000
vt 17.024548 8.835729 0.000000
vt 14.642977 9.162979 0.000000
vt 16.086583 9.817477 0.000000
vt 6.285955 10.471976 0.000000
vt 14.642977 10.471976 0.000000
vt 15.222149 10.799225 0.000000
vt 6.285955 11.780972 0.000000
vt 14.464466 11.780972 0.000000
vt 13.842652 12.762720 0.000000
vt 6.285955 13.089969 0.000000
vt 13.380602 13.744468 0.000000
vt 6.285955 14.398966 0.000000
vt 13.096074 14.726216 0.000000
vt 13.024076 15.217089 0.000000
vt 6.285955 15.707963 0.000000
vt 13.000000 15.707963 0.000000
vt 6.285955 -15.707963 0.000000
vt 13.000000 -15.707963 0.000000
vt 13.024076 -15.217089 0.000000
vt 6.285955 -14.398966 0.000000
vt 13.096074 -14.726216 0.000000
vt 13.380602 -13.744468 0.000000
vt 6.285955 -13.089969 0.000000
vt 13.842652 -12.762720 0.000000
vt 6.285955 -11.780972 0.000000
vt 14.464466 -11.780972 0.000000
vt 15.222149 -10.799225 0.000000
vt 16.086583 -9.817477 0.000000
vt 14.642977 -10.471976 0.000000
vt 6.285955 -10.471976 0.000000
vt -1.035534 -10.471976 0.000000
vt -1.464466 -11.780972 0.000000
vt 17.024548 -8.835729 0.000000
vt 14.642977 -9.162979 0.000000
vt 6.285955 -9.162979 0.000000
vt 14.642977 -7.853982 0.000000
vt 18.000000 -7.853982 0.000000
vt 18.975452 -6.872234 0.000000
vt 14.642977 -6.544985 0.000000
vt 19.913417 -5.890486 0.000000
vt 14.642977 -5.235988 0.000000
vt 20.777851 -4.908739 0.000000
vt 14.642977 -3.926991 0.000000
vt 21.535534 -3.926991 0.000000
vt 22.157348 -2.945243 0.000000
vt 14.642977 -2.617994 0.000000
vt 22.619398 -1.963495 0.000000
vt 14.642977 -1.308997 0.000000
vt 22.903926 -0.981748 0.000000
vt 22.975924 -0.490874 0.000000
vt 14.642977 0.000000 0.000000
vt 23.000000 0.000000 0.000000
vt 22.975924 0.490874 0.000000
vt 14.642977 1.308997 0.000000
vt 22.903926 0.981748 0.000000
vt 22.619398 1.963495 0.000000
vt 14.642977 2.617994 0.000000
vt 22.157348 2.945243 0.000000
vt 14.642977 3.926991 0.000000
vt 21.535534 3.926991 0.000000
vt 20.777851 4.908739 0.000000
vt 14.642977 5.235988 0.000000
vt 19.913417 5.890486 0.000000
vt 14.642977 6.544985 0.000000
vt -0.536032 -9.162979 0.000000
vt 0.000000 -7.853982 0.000000
vt 6.285955 -7.853982 0.000000
vt 0.536032 -6.544985 0.000000
vt 6.285955 -6.544985 0.000000
vt 1.035534 -5.235988 0.000000
vt 6.285955 -5.235988 0.000000
vt 1.464466 -3.926991 0.000000
vt 6.285955 -3.926991 0.000000
vt 1.793597 -2.617994 0.000000
vt 6.285955 -2.617994 0.000000
vt 2.000498 -1.308997 0.000000
vt 6.285955 -1.308997 0.000000
vt 2.071068 0.000000 0.000000
vt 6.285955 0.000000 0.000000
vt 6.285955 1.308997 0.000000
vt -1.793597 -13.089969 0.000000
vt -2.000498 -14.398966 0.000000
vt -2.071068 -15.707963 0.000000
vt -2.071068 15.707963 0.000000
vt -2.000498 14.398966 0.000000
vt -1.793597 13.089969 0.000000
vt -1.464466 11.780972 0.000000
vt -1.035534 10.471976 0.000000
vt -0.536032 9.162979 0.000000
vt 6.285955 9.162979 0.000000
vt 0.000000 7.853982 0.000000
vt 6.285955 7.853982 0.000000
vt 0.536032 6.544985 0.000000
vt 6.285955 6.544985 0.000000
vt 1.035534 5.235988 0.000000
vt 6.285955 5.235988 0.000000
vt 1.464466 3.926991 0.000000
vt 6.285955 3.926991 0.000000
vt 1.793597 2.617994 0.000000
vt 6.285955 2.617994 0.000000
vt 2.000498 1.308997 0.000000
vt 0.000000 14.398966 0.000000
vt 10.690356 14.398966 0.000000
vt 0.000000 15.707963 0.000000
vt 10.690356 15.707963 0.000000
vt 0.000000 -15.707963 0.000000
vt 10.690356 -15.707963 0.000000
vt 0.000000 -14.398966 0.000000
vt 10.690356 -14.398966 0.000000
vt 0.000000 -13.089969 0.000000
vt 10.690356 -13.089969 0.000000
vt 0.000000 -11.780972 0.000000
vt 10.690356 -11.780972 0.000000
vt 0.000000 -10.471976 0.000000
vt 10.690356 -10.471976 0.000000
vt 0.000000 -9.162979 0.000000
vt 10.690356 -9.162979 0.000000
vt 0.000000 -7.853982 0.000000
vt 10.690356 -7.853982 0.000000
vt 0.000000 -6.544985 0.000000
vt 10.690356 -6.544985 0.000000
vt 0.000000 -5.235988 0.000000
vt 10.690356 -5.235988 0.000000
vt 0.000000 -3.926991 0.000000
vt 10.690356 -3.926991 0.000000
vt 0.000000 -2.617994 0.000000
vt 10.690356 -2.617994 0.000000
vt 0.000000 -1.308997 0.000000
vt 10.690356 -1.308997 0.000000
vt 0.000000 0.000000 0.000000
vt 10.690356 0.000000 0.000000
vt 0.000000 1.308997 0.000000
vt 10.690356 1.308997 0.000000
vt 0.000000 2.617994 0.000000
vt 10.690356 2.617994 0.000000
vt 0.000000 3.926991 0.000000
vt 10.690356 3.926991 0.000000
vt 0.000000 5.235988 0.000000
vt 10.690356 5.235988 0.000000
vt 0.000000 6.544985 0.000000
vt 10.690356 6.544985 0.000000
vt 0.000000 7.853982 0.000000
vt 10.690356 7.853982 0.000000
vt 0.000000 9.162979 0.000000
vt 10.690356 9.162979 0.000000
vt 0.000000 10.471976 0.000000
vt 10.690356 10.471976 0.000000
vt 0.000000 11.780972 0.000000
vt 10.690356 11.780972 0.000000
vt 0.000000 13.089969 0.000000
vt 10.690356 13.089969 0.000000
vt 30.536032 9.162979 0.000000
vt 21.380712 9.162979 0.000000
vt 30.000000 7.853982 0.000000
vt 21.380712 7.853982 0.000000
vt 29.463968 6.544985 0.000000
vt 21.380712 6.544985 0.000000
vt 28.964466 5.235988 0.000000
vt 21.380712 5.235988 0.000000
vt 28.535534 3.926991 0.000000
vt 21.380712 3.926991 0.000000
vt 28.206403 2.617994 0.000000
vt 21.380712 2.617994 0.000000
vt 27.999502 1.308997 0.000000
vt 21.380712 1.308997 0.000000
vt 27.928932 0.000000 0.000000
vt 21.380712 0.000000 0.000000
vt 21.380712 -1.308997 0.000000
vt 21.380712 10.471976 0.000000
vt 31.035534 10.471976 0.000000
vt 21.380712 11.780972 0.000000
vt 31.464466 11.780972 0.000000
vt 21.380712 13.089969 0.000000
vt 31.793597 13.089969 0.000000
vt 21.380712 14.398966 0.000000
vt 32.000498 14.398966 0.000000
vt 21.380712 15.707963 0.000000
vt 32.071068 15.707963 0.000000
vt 21.380712 -15.707963 0.000000
vt 32.071068 -15.707963 0.000000
vt 32.000498 -14.398966 0.000000
vt 21.380712 -14.398966 0.000000
vt 31.793597 -13.089969 0.000000
vt 21.380712 -13.089969 0.000000
vt 31.464466 -11.780972 0.000000
vt 21.380712 -11.780972 0.000000
vt 31.035534 -10.471976 0.000000
vt 21.380712 -10.471976 0.000000
vt 30.536032 -9.162979 0.000000
vt 21.380712 -9.162979 0.000000
vt 30.000000 -7.853982 0.000000
vt 21.380712 -7.853982 0.000000
vt 29.463968 -6.544985 0.000000
vt 21.380712 -6.544985 0.000000
vt 28.964466 -5.235988 0.000000
vt 21.380712 -5.235988 0.000000
vt 28.535534 -3.926991 0.000000
vt 21.380712 -3.926991 0.000000
vt 28.206403 -2.617994 0.000000
vt 21.380712 -2.617994 0.000000
vt 27.999502 -1.308997 0.000000
vt -25.000000 14.542956 0.000000
vt -14.983333 14.542956 0.000000
vt -25.000000 15.865043 0.000000
vt -14.983333 15.865043 0.000000
vt -25.000000 -15.865043 0.000000
vt -14.983333 -15.865043 0.000000
vt -25.000000 -14.542956 0.000000
vt -14.983333 -14.542956 0.000000
vt -25.000000 -13.220869 0.000000
vt -14.983333 -13.220869 0.000000
vt -25.000000 -11.898782 0.000000
vt -14.983333 -11.898782 0.000000
vt -25.000000 -10.576695 0.000000
vt -14.983333 -10.576695 0.000000
vt -25.000000 -9.254608 0.000000
vt -14.983333 -9.254608 0.000000
vt -25.000000 -7.932521 0.000000
vt -14.983333 -7.932521 0.000000
vt -25.000000 -6.610435 0.000000
vt -14.983333 -6.610435 0.000000
vt -25.000000 -5.288348 0.000000
vt -14.983333 -5.288348 0.000000
vt -25.000000 -3.966261 0.000000
vt -14.983333 -3.966261 0.000000
vt -25.000000 -2.644174 0.000000
vt -14.983333 -2.644174 0.000000
vt -25.000000 -1.322087 0.000000
vt -14.983333 -1.322087 0.000000
vt -25.000000 0.000000 0.000000
vt -14.983333 0.000000 0.000000
vt -25.000000 1.322087 0.000000
vt -14.983333 1.322087 0.000000
vt -25.000000 2.644174 0.000000
vt -14.983333 2.644174 0.000000
vt -25.000000 3.966261 0.000000
vt -14.983333 3.966261 0.000000
vt -25.000000 5.288348 0.000000
vt -14.983333 5.288348 0.000000
vt -25.000000 6.610435 0.000000
vt -14.983333 6.610435 0.000000
vt -25.000000 7.932521 0.000000
vt -14.983333 7.932521 0.000000
vt -25.000000 9.254608 0.000000
vt -14.983333 9.254608 0.000000
vt -25.000000 10.576695 0.000000
vt -14.983333 10.576695 0.000000
vt -25.000000 11.898782 0.000000
vt -14.983333 11.898782 0.000000
vt -25.000000 13.220869 0.000000
vt -14.983333 13.220869 0.000000
vt 0.985206 6.940956 0.000000
vt -0.000000 7.932521 0.000000
vt -4.966667 7.932521 0.000000
vt -0.985206 8.924087 0.000000
vt -4.966667 9.254608 0.000000
vt -1.932551 9.915652 0.000000
vt -4.966667 10.576695 0.000000
vt -2.805630 10.907217 0.000000
vt -4.966667 11.898782 0.000000
vt -3.570889 11.898782 0.000000
vt -4.198922 12.890347 0.000000
vt -4.665592 13.881913 0.000000
vt -4.966667 13.220869 0.000000
vt -4.952966 14.873478 0.000000
vt -4.966667 14.542956 0.000000
vt -5.025683 15.369260 0.000000
vt -5.050000 15.865043 0.000000
vt -5.050000 -15.865043 0.000000
vt -5.025683 -15.369260 0.000000
vt -4.952966 -14.873478 0.000000
vt -4.966667 -14.542956 0.000000
vt -4.665592 -13.881913 0.000000
vt -4.966667 -13.220869 0.000000
vt -4.198922 -12.890347 0.000000
vt -4.966667 -11.898782 0.000000
vt -3.570889 -11.898782 0.000000
vt -2.805630 -10.907217 0.000000
vt -4.966667 -10.576695 0.000000
vt -1.932551 -9.915652 0.000000
vt -4.966667 -9.254608 0.000000
vt -0.985206 -8.924087 0.000000
vt -4.966667 -7.932521 0.000000
vt -0.000000 -7.932521 0.000000
vt 0.985206 -6.940956 0.000000
vt -4.966667 -6.610435 0.000000
vt 1.932551 -5.949391 0.000000
vt -4.966667 -5.288348 0.000000
vt 2.805630 -4.957826 0.000000
vt -4.966667 -3.966261 0.000000
vt 3.570889 -3.966261 0.000000
vt 4.198922 -2.974696 0.000000
vt -4.966667 -2.644174 0.000000
vt 4.665592 -1.983130 0.000000
vt -4.966667 -1.322087 0.000000
vt 4.952966 -0.991565 0.000000
vt 5.025683 -0.495783 0.000000
vt -4.966667 0.000000 0.000000
vt 5.050000 0.000000 0.000000
vt 5.025683 0.495783 0.000000
vt -4.966667 1.322087 0.000000
vt 4.952966 0.991565 0.000000
vt 4.665592 1.983130 0.000000
vt -4.966667 2.644174 0.000000
vt 4.198922 2.974696 0.000000
vt -4.966667 3.966261 0.000000
vt 3.570889 3.966261 0.000000
vt 2.805630 4.957826 0.000000
vt -4.966667 5.288348 0.000000
vt 1.932551 5.949391 0.000000
vt -4.966667 6.610435 0.000000
vt -1.294095 -4.829629 0.000000
vt -1.307036 -4.877925 0.000000
vt 0.000000 -5.000000 0.000000
vt 0.000000 -5.050000 0.000000
vt 1.307036 -4.877925 0.000000
vt -2.525000 -4.373428 0.000000
vt -2.500000 -4.330127 0.000000
vt -3.570889 -3.570889 0.000000
vt -3.535534 -3.535534 0.000000
vt -4.373428 -2.525000 0.000000
vt -4.330127 -2.500000 0.000000
vt -4.877925 -1.307036 0.000000
vt -4.829629 -1.294095 0.000000
vt -5.050000 0.000000 0.000000
vt -5.000000 0.000000 0.000000
vt -4.829629 1.294095 0.000000
vt -4.877925 1.307036 0.000000
vt -4.330127 2.500000 0.000000
vt -4.373428 2.525000 0.000000
vt -3.535534 3.535534 0.000000
vt -3.570889 3.570889 0.000000
vt -2.500000 4.330127 0.000000
vt -2.525000 4.373428 0.000000
vt -1.294095 4.829629 0.000000
vt -1.307036 4.877925 0.000000
vt 0.000000 5.000000 0.000000
vt 0.000000 5.050000 0.000000
vt 1.307036 4.877925 0.000000
vt 1.294095 4.829629 0.000000
vt 2.525000 4.373428 0.000000
vt 2.500000 4.330127 0.000000
vt 3.570889 3.570889 0.000000
vt 3.535534 3.535534 0.000000
vt 4.373428 2.525000 0.000000
vt 4.330127 2.500000 0.000000
vt 4.877925 1.307036 0.000000
vt 4.829629 1.294095 0.000000
vt 5.050000 0.000000 0.000000
vt 5.000000 0.000000 0.000000
vt 4.877925 -1.307036 0.000000
vt 4.829629 -1.294095 0.000000
vt 4.330127 -2.500000 0.000000
vt 4.373428 -2.525000 0.000000
vt 3.535534 -3.535534 0.000000
vt 3.570889 -3.570889 0.000000
vt 2.500000 -4.330127 0.000000
vt 2.525000 -4.373428 0.000000
vt 1.294095 -4.829629 0.000000
vt -18.985206 -6.940956 0.000000
vt -18.000000 -7.932521 0.000000
vt -14.669407 -7.932521 0.000000
vt -17.014794 -8.924087 0.000000
vt -14.669407 -9.254608 0.000000
vt -16.067449 -9.915652 0.000000
vt -6.288814 -9.254608 0.000000
vt -6.288814 -10.576695 0.000000
vt 0.541392 -9.254608 0.000000
vt 1.045889 -10.576695 0.000000
vt -6.288814 -11.898782 0.000000
vt 1.479111 -11.898782 0.000000
vt -6.288814 -13.220869 0.000000
vt 1.811533 -13.220869 0.000000
vt -6.288814 -14.542956 0.000000
vt 2.020503 -14.542956 0.000000
vt -6.288814 -15.865043 0.000000
vt 2.091778 -15.865043 0.000000
vt 2.091778 15.865043 0.000000
vt -6.288814 15.865043 0.000000
vt 2.020503 14.542956 0.000000
vt -6.288814 14.542956 0.000000
vt 1.811533 13.220869 0.000000
vt -6.288814 13.220869 0.000000
vt 1.479111 11.898782 0.000000
vt -6.288814 11.898782 0.000000
vt 1.045889 10.576695 0.000000
vt -6.288814 10.576695 0.000000
vt 0.541392 9.254608 0.000000
vt -6.288814 9.254608 0.000000
vt -0.000000 7.932521 0.000000
vt -6.288814 7.932521 0.000000
vt -0.541392 6.610435 0.000000
vt -6.288814 6.610435 0.000000
vt -1.045889 5.288348 0.000000
vt -6.288814 5.288348 0.000000
vt -1.479111 3.966261 0.000000
vt -6.288814 3.966261 0.000000
vt -1.811533 2.644174 0.000000
vt -6.288814 2.644174 0.000000
vt -2.020503 1.322087 0.000000
vt -6.288814 1.322087 0.000000
vt -2.091778 0.000000 0.000000
vt -6.288814 0.000000 0.000000
vt -6.288814 -1.322087 0.000000
vt -14.669407 0.000000 0.000000
vt -14.669407 -1.322087 0.000000
vt -23.025683 -0.495783 0.000000
vt -22.952966 -0.991565 0.000000
vt -14.669407 -10.576695 0.000000
vt -15.194370 -10.907217 0.000000
vt -14.429111 -11.898782 0.000000
vt -13.801078 -12.890347 0.000000
vt -13.334408 -13.881913 0.000000
vt -13.047034 -14.873478 0.000000
vt -12.974317 -15.369260 0.000000
vt -12.950000 -15.865043 0.000000
vt -12.950000 15.865043 0.000000
vt -12.974317 15.369260 0.000000
vt -13.047034 14.873478 0.000000
vt -13.334408 13.881913 0.000000
vt -13.801078 12.890347 0.000000
vt -14.429111 11.898782 0.000000
vt -15.194370 10.907217 0.000000
vt -16.067449 9.915652 0.000000
vt -14.669407 10.576695 0.000000
vt -17.014794 8.924087 0.000000
vt -14.669407 9.254608 0.000000
vt -14.669407 7.932521 0.000000
vt -18.000000 7.932521 0.000000
vt -18.985206 6.940956 0.000000
vt -14.669407 6.610435 0.000000
vt -19.932551 5.949391 0.000000
vt -14.669407 5.288348 0.000000
vt -20.805630 4.957826 0.000000
vt -14.669407 3.966261 0.000000
vt -21.570889 3.966261 0.000000
vt -22.198922 2.974696 0.000000
vt -14.669407 2.644174 0.000000
vt -22.665592 1.983130 0.000000
vt -14.669407 1.322087 0.000000
vt -22.952966 0.991565 0.000000
vt -23.025683 0.495783 0.000000
vt -23.050000 0.000000 0.000000
vt -22.665592 -1.983130 0.000000
vt -14.669407 -2.644174 0.000000
vt -6.288814 -2.644174 0.000000
vt -6.288814 -3.966261 0.000000
vt -1.811533 -2.644174 0.000000
vt -1.479111 -3.966261 0.000000
vt -6.288814 -5.288348 0.000000
vt -1.045889 -5.288348 0.000000
vt -6.288814 -6.610435 0.000000
vt -0.541392 -6.610435 0.000000
vt -6.288814 -7.932521 0.000000
vt -0.000000 -7.932521 0.000000
vt -22.198922 -2.974696 0.000000
vt -14.669407 -3.966261 0.000000
vt -21.570889 -3.966261 0.000000
vt -20.805630 -4.957826 0.000000
vt -14.669407 -5.288348 0.000000
vt -19.932551 -5.949391 0.000000
vt -14.669407 -6.610435 0.000000
vt -2.020503 -1.322087 0.000000
vt -0.000000 -14.542956 0.000000
vt -10.697259 -14.542956 0.000000
vt -0.000000 -15.865043 0.000000
vt -10.697259 -15.865043 0.000000
vt -0.000000 15.865043 0.000000
vt -10.697259 15.865043 0.000000
vt -0.000000 14.542956 0.000000
vt -10.697259 14.542956 0.000000
vt -0.000000 13.220869 0.000000
vt -10.697259 13.220869 0.000000
vt -0.000000 11.898782 0.000000
vt -10.697259 11.898782 0.000000
vt -0.000000 10.576695 0.000000
vt -10.697259 10.576695 0.000000
vt -0.000000 9.254608 0.000000
vt -10.697259 9.254608 0.000000
vt -0.000000 7.932521 0.000000
vt -10.697259 7.932521 0.000000
vt -0.000000 6.610435 0.000000
vt -10.697259 6.610435 0.000000
vt -0.000000 5.288348 0.000000
vt -10.697259 5.288348 0.000000
vt -0.000000 3.966261 0.000000
vt -10.697259 3.966261 0.000000
vt -0.000000 2.644174 0.000000
vt -10.697259 2.644174 0.000000
vt -0.000000 1.322087 0.000000
vt -10.697259 1.322087 0.000000
vt -0.000000 0.000000 0.000000
vt -10.697259 0.000000 0.000000
vt -0.000000 -1.322087 0.000000
vt -10.697259 -1.322087 0.000000
vt -0.000000 -2.644174 0.000000
vt -10.697259 -2.644174 0.000000
vt -0.000000 -3.966261 0.000000
vt -10.697259 -3.966261 0.000000
vt -0.000000 -5.288348 0.000000
vt -10.697259 -5.288348 0.000000
vt -0.000000 -6.610435 0.000000
vt -10.697259 -6.610435 0.000000
vt -0.000000 -7.932521 0.000000
vt -10.697259 -7.932521 0.000000
vt -0.000000 -9.254608 0.000000
vt -10.697259 -9.254608 0.000000
vt -0.000000 -10.576695 0.000000
vt -10.697259 -10.576695 0.000000
vt -0.000000 -11.898782 0.000000
vt -10.697259 -11.898782 0.000000
vt -0.000000 -13.220869 0.000000
vt -10.697259 -13.220869 0.000000
vt -30.541392 -9.254608 0.000000
vt -21.394519 -9.254608 0.000000
vt -30.000000 -7.932521 0.000000
vt -21.394519 -7.932521 0.000000
vt -29.458608 -6.610435 0.000000
vt -21.394519 -6.610435 0.000000
vt -28.954111 -5.288348 0.000000
vt -21.394519 -5.288348 0.000000
vt -28.520889 -3.966261 0.000000
vt -21.394519 -3.966261 0.000000
vt -28.188467 -2.644174 0.000000
vt -21.394519 -2.644174 0.000000
vt -27.979497 -1.322087 0.000000
vt -21.394519 -1.322087 0.000000
vt -27.908222 0.000000 0.000000
vt -21.394519 0.000000 0.000000
vt -21.394519 1.322087 0.000000
vt -21.394519 -10.576695 0.000000
vt -31.045889 -10.576695 0.000000
vt -21.394519 -11.898782 0.000000
vt -31.479111 -11.898782 0.000000
vt -21.394519 -13.220869 0.000000
vt -31.811533 -13.220869 0.000000
vt -21.394519 -14.542956 0.000000
vt -32.020503 -14.542956 0.000000
vt -21.394519 -15.865043 0.000000
vt -32.091778 -15.865043 0.000000
vt -21.394519 15.865043 0.000000
vt -32.091778 15.865043 0.000000
vt -32.020503 14.542956 0.000000
vt -21.394519 14.542956 0.000000
vt -31.811533 13.220869 0.000000
vt -21.394519 13.220869 0.000000
vt -31.479111 11.898782 0.000000
vt -21.394519 11.898782 0.000000
vt -31.045889 10.576695 0.000000
vt -21.394519 10.576695 0.000000
vt -30.541392 9.254608 0.000000
vt -21.394519 9.254608 0.000000
vt -30.000000 7.932521 0.000000
vt -21.394519 7.932521 0.000000
vt -29.458608 6.610435 0.000000
vt -21.394519 6.610435 0.000000
vt -28.954111 5.288348 0.000000
vt -21.394519 5.288348 0.000000
vt -28.520889 3.966261 0.000000
vt -21.394519 3.966261 0.000000
vt -28.188467 2.644174 0.000000
vt -21.394519 2.644174 0.000000
vt -27.979497 1.322087 0.000000
vt -1.294095 -4.829629 0.000000
vt -1.307036 -4.877925 0.000000
vt -0.000000 -5.000000 0.000000
vt -0.000000 -5.050000 0.000000
vt 1.307036 -4.877925 0.000000
vt -2.525000 -4.373428 0.000000
vt -2.500000 -4.330127 0.000000
vt -3.570889 -3.570889 0.000000
vt -3.535534 -3.535534 0.000000
vt -4.373428 -2.525000 0.000000
vt -4.330127 -2.500000 0.000000
vt -4.877925 -1.307036 0.000000
vt -4.829629 -1.294095 0.000000
vt -5.050000 0.000000 0.000000
vt -5.000000 0.000000 0.000000
vt -4.829629 1.294095 0.000000
vt -4.877925 1.307036 0.000000
vt -4.330127 2.500000 0.000000
vt -4.373428 2.525000 0.000000
vt -3.535534 3.535534 0.000000
vt -3.570889 3.570889 0.000000
vt -2.500000 4.330127 0.000000
vt -2.525000 4.373428 0.000000
vt -1.294095 4.829629 0.000000
vt -1.307036 4.877925 0.000000
vt -0.000000 5.000000 0.000000
vt -0.000000 5.050000 0.000000
vt 1.307036 4.877925 0.000000
vt 1.294095 4.829629 0.000000
vt 2.525000 4.373428 0.000000
vt 2.500000 4.330127 0.000000
vt 3.570889 3.570889 0.000000
vt 3.535534 3.535534 0.000000
vt 4.373428 2.525000 0.000000
vt 4.330127 2.500000 0.000000
vt 4.877925 1.307036 0.000000
vt 4.829629 1.294095 0.000000
vt 5.050000 0.000000 0.000000
vt 5.000000 0.000000 0.000000
vt 4.877925 -1.307036 0.000000
vt 4.829629 -1.294095 0.000000
vt 4.330127 -2.500000 0.000000
vt 4.373428 -2.525000 0.000000
vt 3.535534 -3.535534 0.000000
vt 3.570889 -3.570889 0.000000
vt 2.500000 -4.330127 0.000000
vt 2.525000 -4.373428 0.000000
vt 1.294095 -4.829629 0.000000
vn 0.683013 0.683013 -0.258819
vn 0.683013 0.683013 -0.258819
vn 0.707107 0.707107 -0.000000
vn 0.707107 0.707107 -0.000000
vn 0.683013 0.683013 0.258819
vn 0.683013 0.683013 0.258819
vn 0.612372 0.612372 0.500000
vn 0.612372 0.612372 0.500000
vn 0.500000 0.500000 0.707107
vn 0.500000 0.500000 0.707107
vn 0.353553 0.353553 0.866025
vn 0.353553 0.353553 0.866025
vn 0.183013 0.183013 0.965926
vn 0.183013 0.183013 0.965926
vn -0.000000 -0.000000 1.000000
vn -0.000000 -0.000000 1.000000
vn -0.183013 -0.183013 0.965926
vn -0.183013 -0.183013 0.965926
vn -0.353553 -0.353553 0.866025
vn -0.353553 -0.353553 0.866025
vn -0.500000 -0.500000 0.707107
vn -0.500000 -0.500000 0.707107
vn -0.612372 -0.612372 0.500000
vn -0.612372 -0.612372 0.500000
vn -0.683013 -0.683013 0.258819
vn -0.683013 -0.683013 0.258819
vn -0.707107 -0.707107 -0.000000
vn -0.707107 -0.707107 -0.000000
vn -0.683013 -0.683013 -0.258819
vn -0.683013 -0.683013 -0.258819
vn -0.612372 -0.612372 -0.500000
vn -0.612372 -0.612372 -0.500000
vn -0.500000 -0.500000 -0.707107
vn -0.500000 -0.500000 -0.707107
vn -0.353553 -0.353553 -0.866025
vn -0.353553 -0.353553 -0.866025
vn -0.183013 -0.183013 -0.965926
vn -0.183013 -0.183013 -0.965926
vn -0.000000 -0.000000 -1.000000
vn -0.000000 -0.000000 -1.000000
vn 0.183013 0.183013 -0.965926
vn 0.183013 0.183013 -0.965926
vn 0.353553 0.353553 -0.866025
vn 0.353553 0.353553 -0.866025
vn 0.500000 0.500000 -0.707107
vn 0.500000 0.500000 -0.707107
vn 0.612372 0.612372 -0.500000
vn 0.612372 0.612372 -0.500000
vn -0.137950 -0.137950 -0.980785
vn -0.000000 -0.000000 -1.000000
vn -0.000000 -0.000000 -1.000000
vn 0.137950 0.137950 -0.980785
vn 0.183013 0.183013 -0.965926
vn 0.270598 0.270598 -0.923880
vn 0.353553 0.353553 -0.866025
vn 0.392847 0.392847 -0.831470
vn 0.500000 0.500000 -0.707107
vn 0.500000 0.500000 -0.707107
vn 0.587938 0.587938 -0.555570
vn 0.653281 0.653281 -0.382683
vn 0.612372 0.612372 -0.500000
vn 0.693520 0.693520 -0.195090
vn 0.683013 0.683013 -0.258819
vn 0.703702 0.703702 -0.098017
vn 0.707107 0.707107 -0.000000
vn 0.703702 0.703702 0.098017
vn 0.693520 0.693520 0.195090
vn 0.683013 0.683013 0.258819
vn 0.653281 0.653281 0.382683
vn 0.612372 0.612372 0.500000
vn 0.587938 0.587938 0.555570
vn 0.500000 0.500000 0.707107
vn 0.500000 0.500000 0.707107
vn 0.392847 0.392847 0.831470
vn 0.353553 0.353553 0.866025
vn 0.270598 0.270598 0.923880
vn 0.183013 0.183013 0.965926
vn 0.137950 0.137950 0.980785
vn -0.000000 -0.000000 1.000000
vn -0.000000 -0.000000 1.000000
vn -0.137950 -0.137950 0.980785
vn -0.183013 -0.183013 0.965926
vn -0.270598 -0.270598 0.923880
vn -0.353553 -0.353553 0.866025
vn -0.392847 -0.392847 0.831470
vn -0.500000 -0.500000 0.707107
vn -0.500000 -0.500000 0.707107
vn -0.587938 -0.587938 0.555570
vn -0.612372 -0.612372 0.500000
vn -0.653281 -0.653281 0.382683
vn -0.683013 -0.683013 0.258819
vn -0.693520 -0.693520 0.195090
vn -0.703702 -0.703702 0.098017
vn -0.707107 -0.707107 -0.000000
vn -0.707107 -0.707107 -0.000000
vn -0.703702 -0.703702 -0.098017
vn -0.683013 -0.683013 -0.258819
vn -0.693520 -0.693520 -0.195090
vn -0.653281 -0.653281 -0.382683
vn -0.612372 -0.612372 -0.500000
vn -0.587938 -0.587938 -0.555570
vn -0.500000 -0.500000 -0.707107
vn -0.500000 -0.500000 -0.707107
vn -0.392847 -0.392847 -0.831470
vn -0.353553 -0.353553 -0.866025
vn -0.270598 -0.270598 -0.923880
vn -0.183013 -0.183013 -0.965926
vn -0.137950 0.137950 0.980785
vn -0.000000 0.000000 1.000000
vn 0.137950 -0.137950 0.980785
vn 0.183013 -0.183013 0.965926
vn 0.270598 -0.270598 0.923880
vn 0.353553 -0.353553 0.866025
vn 0.353553 -0.353553 0.866025
vn 0.392847 -0.392847 0.831470
vn 0.500000 -0.500000 0.707107
vn 0.500000 -0.500000 0.707107
vn 0.587938 -0.587938 0.555570
vn 0.612372 -0.612372 0.500000
vn 0.653281 -0.653281 0.382683
vn 0.683013 -0.683013 0.258819
vn 0.693520 -0.693520 0.195090
vn 0.703702 -0.703702 0.098017
vn 0.707107 -0.707107 0.000000
vn 0.707107 -0.707107 0.000000
vn 0.703702 -0.703702 -0.098017
vn 0.683013 -0.683013 -0.258819
vn 0.693520 -0.693520 -0.195090
vn 0.653281 -0.653281 -0.382683
vn 0.612372 -0.612372 -0.500000
vn 0.587938 -0.587938 -0.555570
vn 0.500000 -0.500000 -0.707107
vn 0.500000 -0.500000 -0.707107
vn 0.392847 -0.392847 -0.831470
vn 0.270598 -0.270598 -0.923880
vn 0.353553 -0.353553 -0.866025
vn 0.353553 -0.353553 -0.866025
vn 0.353553 -0.353553 -0.866025
vn 0.500000 -0.500000 -0.707107
vn 0.137950 -0.137950 -0.980785
vn 0.183013 -0.183013 -0.965926
vn 0.183013 -0.183013 -0.965926
vn -0.000000 0.000000 -1.000000
vn -0.137950 0.137950 -0.980785
vn -0.183013 0.183013 -0.965926
vn -0.270598 0.270598 -0.923880
vn -0.353553 0.353553 -0.866025
vn -0.392847 0.392847 -0.831470
vn -0.500000 0.500000 -0.707107
vn -0.500000 0.500000 -0.707107
vn -0.587938 0.587938 -0.555570
vn -0.612372 0.612372 -0.500000
vn -0.653281 0.653281 -0.382683
vn -0.683013 0.683013 -0.258819
vn -0.693520 0.693520 -0.195090
vn -0.703702 0.703702 -0.098017
vn -0.707107 0.707107 0.000000
vn -0.707107 0.707107 0.000000
vn -0.703702 0.703702 0.098017
vn -0.683013 0.683013 0.258819
vn -0.693520 0.693520 0.195090
vn -0.653281 0.653281 0.382683
vn -0.612372 0.612372 0.500000
vn -0.587938 0.587938 0.555570
vn -0.500000 0.500000 0.707107
vn -0.500000 0.500000 0.707107
vn -0.392847 0.392847 0.831470
vn -0.353553 0.353553 0.866025
vn -0.270598 0.270598 0.923880
vn -0.183013 0.183013 0.965926
vn 0.183013 -0.183013 -0.965926
vn -0.000000 0.000000 -1.000000
vn -0.000000 0.000000 -1.000000
vn -0.183013 0.183013 -0.965926
vn -0.183013 0.183013 -0.965926
vn -0.353553 0.353553 -0.866025
vn -0.353553 0.353553 -0.866025
vn -0.500000 0.500000 -0.707107
vn -0.500000 0.500000 -0.707107
vn -0.612372 0.612372 -0.500000
vn -0.612372 0.612372 -0.500000
vn -0.683013 0.683013 -0.258819
vn -0.683013 0.683013 -0.258819
vn -0.707107 0.707107 0.000000
vn -0.707107 0.707107 0.000000
vn -0.683013 0.683013 0.258819
vn 0.612372 -0.612372 -0.500000
vn 0.683013 -0.683013 -0.258819
vn 0.707107 -0.707107 -0.000000
vn 0.683013 -0.683013 0.258819
vn 0.612372 -0.612372 0.500000
vn 0.500000 -0.500000 0.707107
vn 0.353553 -0.353553 0.866025
vn 0.183013 -0.183013 0.965926
vn 0.183013 -0.183013 0.965926
vn -0.000000 0.000000 1.000000
vn -0.000000 0.000000 1.000000
vn -0.183013 0.183013 0.965926
vn -0.183013 0.183013 0.965926
vn -0.353553 0.353553 0.866025
vn -0.353553 0.353553 0.866025
vn -0.500000 0.500000 0.707107
vn -0.500000 0.500000 0.707107
vn -0.612372 0.612372 0.500000
vn -0.612372 0.612372 0.500000
vn -0.683013 0.683013 0.258819
vn 0.965926 -0.000000 0.258819
vn 0.965926 -0.000000 0.258819
vn 1.000000 -0.000000 0.000000
vn 1.000000 -0.000000 0.000000
vn 0.965926 0.000000 -0.258819
vn 0.965926 0.000000 -0.258819
vn 0.866025 0.000000 -0.500000
vn 0.866025 0.000000 -0.500000
vn 0.707107 0.000000 -0.707107
vn 0.707107 0.000000 -0.707107
vn 0.500000 0.000000 -0.866025
vn 0.500000 0.000000 -0.866025
vn 0.258819 0.000000 -0.965926
vn 0.258819 0.000000 -0.965926
vn -0.000000 0.000000 -1.000000
vn -0.000000 0.000000 -1.000000
vn -0.258819 0.000000 -0.965926
vn -0.258819 0.000000 -0.965926
vn -0.500000 0.000000 -0.866025
vn -0.500000 0.000000 -0.866025
vn -0.707107 0.000000 -0.707107
vn -0.707107 0.000000 -0.707107
vn -0.866025 0.000000 -0.500000
vn -0.866025 0.000000 -0.500000
vn -0.965926 0.000000 -0.258819
vn -0.965926 0.000000 -0.258819
vn -1.000000 0.000000 0.000000
vn -1.000000 0.000000 0.000000
vn -0.965926 0.000000 0.258819
vn -0.965926 0.000000 0.258819
vn -0.866025 0.000000 0.500000
vn -0.866025 0.000000 0.500000
vn -0.707107 0.000000 0.707107
vn -0.707107 0.000000 0.707107
vn -0.500000 0.000000 0.866025
vn -0.500000 0.000000 0.866025
vn -0.258819 0.000000 0.965926
vn -0.258819 0.000000 0.965926
vn -0.000000 0.000000 1.000000
vn -0.000000 0.000000 1.000000
vn 0.258819 -0.000000 0.965926
vn 0.258819 -0.000000 0.965926
vn 0.500000 -0.000000 0.866025
vn 0.500000 -0.000000 0.866025
vn 0.707107 -0.000000 0.707107
vn 0.707107 -0.000000 0.707107
vn 0.866025 -0.000000 0.500000
vn 0.866025 -0.000000 0.500000
vn 0.258819 -0.000000 0.965926
vn 0.258819 -0.000000 0.965926
vn -0.000000 0.000000 1.000000
vn -0.258819 0.000000 0.965926
vn -0.258819 0.000000 0.965926
vn -0.500000 0.000000 0.866025
vn -0.500000 0.000000 0.866025
vn -0.707107 0.000000 0.707107
vn -0.707107 0.000000 0.707107
vn -0.866025 0.000000 0.500000
vn -0.866025 0.000000 0.500000
vn -0.965926 0.000000 0.258819
vn -0.965926 0.000000 0.258819
vn -1.000000 0.000000 0.000000
vn -1.000000 0.000000 0.000000
vn -0.965926 0.000000 -0.258819
vn 0.500000 -0.000000 0.866025
vn 0.500000 -0.000000 0.866025
vn 0.707107 -0.000000 0.707107
vn 0.707107 -0.000000 0.707107
vn 0.866025 -0.000000 0.500000
vn 0.866025 -0.000000 0.500000
vn 0.965926 -0.000000 0.258819
vn 0.965926 -0.000000 0.258819
vn 1.000000 -0.000000 0.000000
vn 1.000000 -0.000000 0.000000
vn 0.965926 0.000000 -0.258819
vn 0.965926 0.000000 -0.258819
vn 0.866025 0.000000 -0.500000
vn 0.866025 0.000000 -0.500000
vn 0.707107 0.000000 -0.707107
vn 0.707107 0.000000 -0.707107
vn 0.500000 0.000000 -0.866025
vn 0.500000 0.000000 -0.866025
vn 0.258819 0.000000 -0.965926
vn 0.258819 0.000000 -0.965926
vn -0.000000 0.000000 -1.000000
vn -0.258819 0.000000 -0.965926
vn -0.258819 0.000000 -0.965926
vn -0.500000 0.000000 -0.866025
vn -0.500000 0.000000 -0.866025
vn -0.707107 0.000000 -0.707107
vn -0.707107 0.000000 -0.707107
vn -0.866025 0.000000 -0.500000
vn -0.866025 0.000000 -0.500000
vn -0.965926 0.000000 -0.258819
vn -0.683013 -0.683013 -0.258819
vn -0.683013 -0.683013 -0.258819
vn -0.707107 -0.707107 -0.000000
vn -0.707107 -0.707107 -0.000000
vn -0.683013 -0.683013 0.258819
vn -0.683013 -0.683013 0.258819
vn -0.612372 -0.612372 0.500000
vn -0.612372 -0.612372 0.500000
vn -0.500000 -0.500000 0.707107
vn -0.500000 -0.500000 0.707107
vn -0.353553 -0.353553 0.866025
vn -0.353553 -0.353553 0.866025
vn -0.183013 -0.183013 0.965926
vn -0.183013 -0.183013 0.965926
vn -0.000000 -0.000000 1.000000
vn -0.000000 -0.000000 1.000000
vn 0.183013 0.183013 0.965926
vn 0.183013 0.183013 0.965926
vn 0.353553 0.353553 0.866025
vn 0.353553 0.353553 0.866025
vn 0.500000 0.500000 0.707107
vn 0.500000 0.500000 0.707107
vn 0.612372 0.612372 0.500000
vn 0.612372 0.612372 0.500000
vn 0.683013 0.683013 0.258819
vn 0.683013 0.683013 0.258819
vn 0.707107 0.707107 0.000000
vn 0.707107 0.707107 0.000000
vn 0.683013 0.683013 -0.258819
vn 0.683013 0.683013 -0.258819
vn 0.612372 0.612372 -0.500000
vn 0.612372 0.612372 -0.500000
vn 0.500000 0.500000 -0.707107
vn 0.500000 0.500000 -0.707107
vn 0.353553 0.353553 -0.866025
vn 0.353553 0.353553 -0.866025
vn 0.183013 0.183013 -0.965926
vn 0.183013 0.183013 -0.965926
vn -0.000000 -0.000000 -1.000000
vn -0.000000 -0.000000 -1.000000
vn -0.183013 -0.183013 -0.965926
vn -0.183013 -0.183013 -0.965926
vn -0.353553 -0.353553 -0.866025
vn -0.353553 -0.353553 -0.866025
vn -0.500000 -0.500000 -0.707107
vn -0.500000 -0.500000 -0.707107
vn -0.612372 -0.612372 -0.500000
vn -0.612372 -0.612372 -0.500000
vn 0.137950 0.137950 -0.980785
vn 0.000000 0.000000 -1.000000
vn -0.000000 -0.000000 -1.000000
vn -0.137950 -0.137950 -0.980785
vn -0.183013 -0.183013 -0.965926
vn -0.270598 -0.270598 -0.923880
vn -0.353553 -0.353553 -0.866025
vn -0.392847 -0.392847 -0.831470
vn -0.500000 -0.500000 -0.707107
vn -0.500000 -0.500000 -0.707107
vn -0.587938 -0.587938 -0.555570
vn -0.653281 -0.653281 -0.382683
vn -0.612372 -0.612372 -0.500000
vn -0.693520 -0.693520 -0.195090
vn -0.683013 -0.683013 -0.258819
vn -0.703702 -0.703702 -0.098017
vn -0.707107 -0.707107 -0.000000
vn -0.703702 -0.703702 0.098017
vn -0.693520 -0.693520 0.195090
vn -0.683013 -0.683013 0.258819
vn -0.653281 -0.653281 0.382683
vn -0.612372 -0.612372 0.500000
vn -0.587938 -0.587938 0.555570
vn -0.500000 -0.500000 0.707107
vn -0.500000 -0.500000 0.707107
vn -0.392847 -0.392847 0.831470
vn -0.353553 -0.353553 0.866025
vn -0.270598 -0.270598 0.923880
vn -0.183013 -0.183013 0.965926
vn -0.137950 -0.137950 0.980785
vn -0.000000 -0.000000 1.000000
vn 0.000000 0.000000 1.000000
vn 0.137950 0.137950 0.980785
vn 0.183013 0.183013 0.965926
vn 0.270598 0.270598 0.923880
vn 0.353553 0.353553 0.866025
vn 0.392847 0.392847 0.831470
vn 0.500000 0.500000 0.707107
vn 0.500000 0.500000 0.707107
vn 0.587938 0.587938 0.555570
vn 0.612372 0.612372 0.500000
vn 0.653281 0.653281 0.382683
vn 0.683013 0.683013 0.258819
vn 0.693520 0.693520 0.195090
vn 0.703702 0.703702 0.098017
vn 0.707107 0.707107 0.000000
vn 0.707107 0.707107 0.000000
vn 0.703702 0.703702 -0.098017
vn 0.683013 0.683013 -0.258819
vn 0.693520 0.693520 -0.195090
vn 0.653281 0.653281 -0.382683
vn 0.612372 0.612372 -0.500000
vn 0.587938 0.587938 -0.555570
vn 0.500000 0.500000 -0.707107
vn 0.500000 0.500000 -0.707107
vn 0.392847 0.392847 -0.831470
vn 0.353553 0.353553 -0.866025
vn 0.270598 0.270598 -0.923880
vn 0.183013 0.183013 -0.965926
vn -0.707107 0.707107 0.000000
vn -0.707107 0.707107 0.000000
vn -0.707107 0.707107 0.000000
vn -0.707107 0.707107 0.000000
vn -0.707107 0.707107 0.000000
vn -0.707107 0.707107 0.000000
vn -0.707107 0.707107 0.000000
vn -0.707107 0.707107 0.000000
vn -0.707107 0.707107 0.000000
vn -0.707107 0.707107 0.000000
vn -0.707107 0.707107 0.000000
vn -0.707107 0.707107 0.000000
vn -0.707107 0.707107 0.000000
vn -0.707107 0.707107 0.000000
vn -0.707107 0.707107 0.000000
vn -0.707107 0.707107 0.000000
vn -0.707107 0.707107 0.000000
vn -0.707107 0.707107 0.000000
vn -0.707107 0.707107 0.000000
vn -0.707107 0.707107 0.000000
vn -0.707107 0.707107 0.000000
vn -0.707107 0.707107 0.000000
vn -0.707107 0.707107 0.000000
vn -0.707107 0.707107 0.000000
vn -0.707107 0.707107 0.000000
vn -0.707107 0.707107 0.000000
vn -0.707107 0.707107 0.000000
vn -0.707107 0.707107 0.000000
vn -0.707107 0.707107 0.000000
vn -0.707107 0.707107 0.000000
vn -0.707107 0.707107 0.000000
vn -0.707107 0.707107 0.000000
vn -0.707107 0.707107 0.000000
vn -0.707107 0.707107 0.000000
vn -0.707107 0.707107 0.000000
vn -0.707107 0.707107 0.000000
vn -0.707107 0.707107 0.000000
vn -0.707107 0.707107 0.000000
vn -0.707107 0.707107 0.000000
vn -0.707107 0.707107 0.000000
vn -0.707107 0.707107 0.000000
vn -0.707107 0.707107 0.000000
vn -0.707107 0.707107 0.000000
vn -0.707107 0.707107 0.000000
vn -0.707107 0.707107 0.000000
vn -0.707107 0.707107 0.000000
vn -0.707107 0.707107 0.000000
vn -0.707107 0.707107 0.000000
vn 0.137950 -0.137950 0.980785
vn 0.000000 -0.000000 1.000000
vn -0.137950 0.137950 0.980785
vn -0.183013 0.183013 0.965926
vn -0.270598 0.270598 0.923880
vn -0.183013 0.183013 0.965926
vn -0.353553 0.353553 0.866025
vn -0.183013 0.183013 0.965926
vn -0.353553 0.353553 0.866025
vn -0.500000 0.500000 0.707107
vn -0.500000 0.500000 0.707107
vn -0.612372 0.612372 0.500000
vn -0.612372 0.612372 0.500000
vn -0.683013 0.683013 0.258819
vn -0.683013 0.683013 0.258819
vn -0.707107 0.707107 0.000000
vn -0.707107 0.707107 0.000000
vn -0.683013 0.683013 -0.258819
vn -0.683013 0.683013 -0.258819
vn -0.612372 0.612372 -0.500000
vn -0.612372 0.612372 -0.500000
vn -0.500000 0.500000 -0.707107
vn -0.500000 0.500000 -0.707107
vn -0.353553 0.353553 -0.866025
vn -0.353553 0.353553 -0.866025
vn -0.183013 0.183013 -0.965926
vn -0.183013 0.183013 -0.965926
vn 0.000000 -0.000000 -1.000000
vn 0.000000 -0.000000 -1.000000
vn 0.183013 -0.183013 -0.965926
vn 0.183013 -0.183013 -0.965926
vn 0.353553 -0.353553 -0.866025
vn 0.353553 -0.353553 -0.866025
vn 0.500000 -0.500000 -0.707107
vn 0.500000 -0.500000 -0.707107
vn 0.612372 -0.612372 -0.500000
vn 0.612372 -0.612372 -0.500000
vn 0.683013 -0.683013 -0.258819
vn 0.683013 -0.683013 -0.258819
vn 0.707107 -0.707107 -0.000000
vn 0.707107 -0.707107 -0.000000
vn 0.683013 -0.683013 0.258819
vn 0.707107 -0.707107 -0.000000
vn 0.683013 -0.683013 0.258819
vn 0.703702 -0.703702 0.098017
vn 0.693520 -0.693520 0.195090
vn -0.353553 0.353553 0.866025
vn -0.392847 0.392847 0.831470
vn -0.500000 0.500000 0.707107
vn -0.587938 0.587938 0.555570
vn -0.653281 0.653281 0.382683
vn -0.693520 0.693520 0.195090
vn -0.703702 0.703702 0.098017
vn -0.707107 0.707107 0.000000
vn -0.703702 0.703702 -0.098017
vn -0.693520 0.693520 -0.195090
vn -0.653281 0.653281 -0.382683
vn -0.587938 0.587938 -0.555570
vn -0.500000 0.500000 -0.707107
vn -0.392847 0.392847 -0.831470
vn -0.270598 0.270598 -0.923880
vn -0.353553 0.353553 -0.866025
vn -0.137950 0.137950 -0.980785
vn -0.183013 0.183013 -0.965926
vn 0.000000 -0.000000 -1.000000
vn 0.137950 -0.137950 -0.980785
vn 0.183013 -0.183013 -0.965926
vn 0.270598 -0.270598 -0.923880
vn 0.353553 -0.353553 -0.866025
vn 0.392847 -0.392847 -0.831470
vn 0.500000 -0.500000 -0.707107
vn 0.500000 -0.500000 -0.707107
vn 0.587938 -0.587938 -0.555570
vn 0.612372 -0.612372 -0.500000
vn 0.653281 -0.653281 -0.382683
vn 0.683013 -0.683013 -0.258819
vn 0.693520 -0.693520 -0.195090
vn 0.703702 -0.703702 -0.098017
vn 0.707107 -0.707107 -0.000000
vn 0.653281 -0.653281 0.382683
vn 0.612372 -0.612372 0.500000
vn 0.612372 -0.612372 0.500000
vn 0.500000 -0.500000 0.707107
vn 0.612372 -0.612372 0.500000
vn 0.500000 -0.500000 0.707107
vn 0.353553 -0.353553 0.866025
vn 0.353553 -0.353553 0.866025
vn 0.183013 -0.183013 0.965926
vn 0.183013 -0.183013 0.965926
vn 0.000000 -0.000000 1.000000
vn 0.000000 -0.000000 1.000000
vn 0.587938 -0.587938 0.555570
vn 0.500000 -0.500000 0.707107
vn 0.500000 -0.500000 0.707107
vn 0.392847 -0.392847 0.831470
vn 0.353553 -0.353553 0.866025
vn 0.270598 -0.270598 0.923880
vn 0.183013 -0.183013 0.965926
vn 0.683013 -0.683013 0.258819
vn -0.965926 -0.000000 0.258819
vn -0.965926 -0.000000 0.258819
vn -1.000000 -0.000000 0.000000
vn -1.000000 -0.000000 0.000000
vn -0.965926 0.000000 -0.258819
vn -0.965926 0.000000 -0.258819
vn -0.866025 0.000000 -0.500000
vn -0.866025 0.000000 -0.500000
vn -0.707107 0.000000 -0.707107
vn -0.707107 0.000000 -0.707107
vn -0.500000 0.000000 -0.866025
vn -0.500000 0.000000 -0.866025
vn -0.258819 0.000000 -0.965926
vn -0.258819 0.000000 -0.965926
vn 0.000000 -0.000000 -1.000000
vn 0.000000 -0.000000 -1.000000
vn 0.258819 -0.000000 -0.965926
vn 0.258819 -0.000000 -0.965926
vn 0.500000 -0.000000 -0.866025
vn 0.500000 -0.000000 -0.866025
vn 0.707107 -0.000000 -0.707107
vn 0.707107 -0.000000 -0.707107
vn 0.866025 -0.000000 -0.500000
vn 0.866025 -0.000000 -0.500000
vn 0.965926 -0.000000 -0.258819
vn 0.965926 -0.000000 -0.258819
vn 1.000000 -0.000000 -0.000000
vn 1.000000 -0.000000 -0.000000
vn 0.965926 -0.000000 0.258819
vn 0.965926 -0.000000 0.258819
vn 0.866025 -0.000000 0.500000
vn 0.866025 -0.000000 0.500000
vn 0.707107 -0.000000 0.707107
vn 0.707107 -0.000000 0.707107
vn 0.500000 -0.000000 0.866025
vn 0.500000 -0.000000 0.866025
vn 0.258819 -0.000000 0.965926
vn 0.258819 -0.000000 0.965926
vn 0.000000 -0.000000 1.000000
vn 0.000000 -0.000000 1.000000
vn -0.258819 -0.000000 0.965926
vn -0.258819 -0.000000 0.965926
vn -0.500000 -0.000000 0.866025
vn -0.500000 -0.000000 0.866025
vn -0.707107 -0.000000 0.707107
vn -0.707107 -0.000000 0.707107
vn -0.866025 -0.000000 0.500000
vn -0.866025 -0.000000 0.500000
vn -0.258819 -0.000000 0.965926
vn -0.258819 -0.000000 0.965926
vn 0.000000 -0.000000 1.000000
vn 0.258819 -0.000000 0.965926
vn 0.258819 -0.000000 0.965926
vn 0.500000 -0.000000 0.866025
vn 0.500000 -0.000000 0.866025
vn 0.707107 -0.000000 0.707107
vn 0.707107 -0.000000 0.707107
vn 0.866025 -0.000000 0.500000
vn 0.866025 -0.000000 0.500000
vn 0.965926 -0.000000 0.258819
vn 0.965926 -0.000000 0.258819
vn 1.000000 -0.000000 -0.000000
vn 1.000000 -0.000000 -0.000000
vn 0.965926 -0.000000 -0.258819
vn -0.500000 -0.000000 0.866025
vn -0.500000 -0.000000 0.866025
vn -0.707107 -0.000000 0.707107
vn -0.707107 -0.000000 0.707107
vn -0.866025 -0.000000 0.500000
vn -0.866025 -0.000000 0.500000
vn -0.965926 -0.000000 0.258819
vn -0.965926 -0.000000 0.258819
vn -1.000000 -0.000000 0.000000
vn -1.000000 -0.000000 0.000000
vn -0.965926 0.000000 -0.258819
vn -0.965926 0.000000 -0.258819
vn -0.866025 0.000000 -0.500000
vn -0.866025 0.000000 -0.500000
vn -0.707107 0.000000 -0.707107
vn -0.707107 0.000000 -0.707107
vn -0.500000 0.000000 -0.866025
vn -0.500000 0.000000 -0.866025
vn -0.258819 0.000000 -0.965926
vn -0.258819 0.000000 -0.965926
vn 0.000000 -0.000000 -1.000000
vn 0.258819 -0.000000 -0.965926
vn 0.258819 -0.000000 -0.965926
vn 0.500000 -0.000000 -0.866025
vn 0.500000 -0.000000 -0.866025
vn 0.707107 -0.000000 -0.707107
vn 0.707107 -0.000000 -0.707107
vn 0.866025 -0.000000 -0.500000
vn 0.866025 -0.000000 -0.500000
vn 0.965926 -0.000000 -0.258819
vn -0.000000 -1.000000 -0.000000
vn -0.000000 -1.000000 -0.000000
vn -0.000000 -1.000000 -0.000000
vn -0.000000 -1.000000 -0.000000
vn -0.000000 -1.000000 -0.000000
vn -0.000000 -1.000000 -0.000000
vn -0.000000 -1.000000 -0.000000
vn -0.000000 -1.000000 -0.000000
vn -0.000000 -1.000000 -0.000000
vn -0.000000 -1.000000 -0.000000
vn -0.000000 -1.000000 -0.000000
vn -0.000000 -1.000000 -0.000000
vn -0.000000 -1.000000 -0.000000
vn -0.000000 -1.000000 -0.000000
vn -0.000000 -1.000000 -0.000000
vn -0.000000 -1.000000 -0.000000
vn -0.000000 -1.000000 -0.000000
vn -0.000000 -1.000000 -0.000000
vn -0.000000 -1.000000 -0.000000
vn -0.000000 -1.000000 -0.000000
vn -0.000000 -1.000000 -0.000000
vn -0.000000 -1.000000 -0.000000
vn -0.000000 -1.000000 -0.000000
vn -0.000000 -1.000000 -0.000000
vn -0.000000 -1.000000 -0.000000
vn -0.000000 -1.000000 -0.000000
vn -0.000000 -1.000000 -0.000000
vn -0.000000 -1.000000 -0.000000
vn -0.000000 -1.000000 -0.000000
vn -0.000000 -1.000000 -0.000000
vn -0.000000 -1.000000 -0.000000
vn -0.000000 -1.000000 -0.000000
vn -0.000000 -1.000000 -0.000000
vn -0.000000 -1.000000 -0.000000
vn -0.000000 -1.000000 -0.000000
vn -0.000000 -1.000000 -0.000000
vn -0.000000 -1.000000 -0.000000
vn -0.000000 -1.000000 -0.000000
vn -0.000000 -1.000000 -0.000000
vn -0.000000 -1.000000 -0.000000
vn -0.000000 -1.000000 -0.000000
vn -0.000000 -1.000000 -0.000000
vn -0.000000 -1.000000 -0.000000
vn -0.000000 -1.000000 -0.000000
vn -0.000000 -1.000000 -0.000000
vn -0.000000 -1.000000 -0.000000
vn -0.000000 -1.000000 -0.000000
vn -0.000000 -1.000000 -0.000000
usemtl Steel_-_Satin
f 2/1/1 62/2/2 1/3/3
f 1/3/3 62/2/2 61/4/4
f 1/5/3 61/6/4 24/7/5
f 24/7/5 61/6/4 106/8/6
f 24/7/5 106/8/6 23/9/7
f 23/9/7 106/8/6 104/10/8
f 23/9/7 104/10/8 22/11/9
f 22/11/9 104/10/8 102/12/10
f 22/11/9 102/12/10 21/13/11
f 21/13/11 102/12/10 100/14/12
f 21/13/11 100/14/12 20/15/13
f 20/15/13 100/14/12 98/16/14
f 20/15/13 98/16/14 19/17/15
f 19/17/15 98/16/14 96/18/16
f 19/17/15 96/18/16 18/19/17
f 18/19/17 96/18/16 94/20/18
f 18/19/17 94/20/18 17/21/19
f 17/21/19 94/20/18 92/22/20
f 17/21/19 92/22/20 16/23/21
f 16/23/21 92/22/20 90/24/22
f 16/23/21 90/24/22 15/25/23
f 15/25/23 90/24/22 88/26/24
f 15/25/23 88/26/24 14/27/25
f 14/27/25 88/26/24 86/28/26
f 14/27/25 86/28/26 13/29/27
f 13/29/27 86/28/26 84/30/28
f 13/29/27 84/30/28 12/31/29
f 12/31/29 84/30/28 82/32/30
f 12/31/29 82/32/30 11/33/31
f 11/33/31 82/32/30 80/34/32
f 11/33/31 80/34/32 10/35/33
f 10/35/33 80/34/32 78/36/34
f 10/35/33 78/36/34 9/37/35
f 9/37/35 78/36/34 76/38/36
f 9/37/35 76/38/36 8/39/37
f 8/39/37 76/38/36 74/40/38
f 8/39/37 74/40/38 7/41/39
f 7/41/39 74/40/38 72/42/40
f 7/41/39 72/42/40 6/43/41
f 6/43/41 72/42/40 70/44/42
f 6/43/41 70/44/42 5/45/43
f 5/45/43 70/44/42 68/46/44
f 5/45/43 68/46/44 4/47/45
f 4/47/45 68/46/44 66/48/46
f 4/47/45 66/48/46 3/49/47
f 3/49/47 66/48/46 64/50/48
f 3/49/47 64/50/48 2/1/1
f 2/1/1 64/50/48 62/2/2
f 60/51/49 25/52/50 73/53/51
f 73/53/51 25/52/50 26/54/52
f 73/53/51 26/54/52 71/55/53
f 71/55/53 26/54/52 27/56/54
f 71/55/53 27/56/54 69/57/55
f 69/57/55 27/56/54 28/58/56
f 69/57/55 28/58/56 67/59/57
f 67/59/57 28/58/56 29/60/58
f 67/59/57 29/60/58 30/61/59
f 31/62/60 65/63/61 30/61/59
f 30/61/59 65/63/61 64/50/48
f 30/61/59 64/50/48 66/48/46
f 32/64/62 63/65/63 31/62/60
f 31/62/60 63/65/63 62/2/2
f 31/62/60 62/2/2 64/50/48
f 63/65/63 32/64/62 62/2/2
f 62/2/2 32/64/62 33/66/64
f 62/2/2 33/66/64 61/4/4
f 61/4/4 33/66/64 34/67/65
f 61/6/4 34/68/65 35/69/66
f 61/6/4 35/69/66 106/8/6
f 106/8/6 35/69/66 36/70/67
f 106/8/6 36/70/67 107/71/68
f 107/71/68 36/70/67 37/72/69
f 107/71/68 37/72/69 106/8/6
f 106/8/6 37/72/69 104/10/8
f 104/10/8 37/72/69 105/73/70
f 105/73/70 37/72/69 38/74/71
f 105/73/70 38/74/71 104/10/8
f 104/10/8 38/74/71 102/12/10
f 102/12/10 38/74/71 103/75/72
f 103/75/72 38/74/71 39/76/73
f 103/75/72 39/76/73 40/77/74
f 103/75/72 40/77/74 101/78/75
f 101/78/75 40/77/74 41/79/76
f 101/78/75 41/79/76 99/80/77
f 99/80/77 41/79/76 42/81/78
f 99/80/77 42/81/78 97/82/79
f 97/82/79 42/81/78 43/83/80
f 97/82/79 43/83/80 44/84/81
f 97/82/79 44/84/81 95/85/82
f 95/85/82 44/84/81 45/86/83
f 95/85/82 45/86/83 93/87/84
f 93/87/84 45/86/83 46/88/85
f 93/87/84 46/88/85 91/89/86
f 91/89/86 46/88/85 47/90/87
f 91/89/86 47/90/87 48/91/88
f 91/89/86 48/91/88 89/92/89
f 89/92/89 48/91/88 49/93/90
f 89/92/89 49/93/90 87/94/91
f 87/94/91 49/93/90 50/95/92
f 87/94/91 50/95/92 51/96/93
f 87/94/91 51/96/93 85/97/94
f 85/97/94 51/96/93 52/98/95
f 85/97/94 52/98/95 53/99/96
f 85/97/94 53/99/96 83/100/97
f 83/100/97 53/99/96 54/101/98
f 83/100/97 54/101/98 55/102/99
f 83/100/97 55/102/99 81/103/100
f 81/103/100 55/102/99 56/104/101
f 81/103/100 56/104/101 79/105/102
f 79/105/102 56/104/101 57/106/103
f 79/105/102 57/106/103 58/107/104
f 79/105/102 58/107/104 77/108/105
f 77/108/105 58/107/104 59/109/106
f 77/108/105 59/109/106 75/110/107
f 75/110/107 59/109/106 60/51/49
f 75/110/107 60/51/49 73/53/51
f 64/50/48 65/63/61 31/62/60
f 69/57/55 67/59/57 66/48/46
f 66/48/46 67/59/57 30/61/59
f 69/57/55 66/48/46 68/46/44
f 71/55/53 69/57/55 68/46/44
f 71/55/53 68/46/44 70/44/42
f 73/53/51 71/55/53 70/44/42
f 73/53/51 70/44/42 72/42/40
f 75/110/107 73/53/51 72/42/40
f 75/110/107 72/42/40 74/40/38
f 77/108/105 75/110/107 74/40/38
f 77/108/105 74/40/38 76/38/36
f 79/105/102 77/108/105 76/38/36
f 79/105/102 76/38/36 78/36/34
f 81/103/100 79/105/102 78/36/34
f 81/103/100 78/36/34 80/34/32
f 83/100/97 81/103/100 80/34/32
f 83/100/97 80/34/32 82/32/30
f 85/97/94 83/100/97 82/32/30
f 85/97/94 82/32/30 84/30/28
f 87/94/91 85/97/94 84/30/28
f 87/94/91 84/30/28 86/28/26
f 89/92/89 87/94/91 86/28/26
f 89/92/89 86/28/26 88/26/24
f 91/89/86 89/92/89 88/26/24
f 91/89/86 88/26/24 90/24/22
f 93/87/84 91/89/86 90/24/22
f 93/87/84 90/24/22 92/22/20
f 95/85/82 93/87/84 92/22/20
f 95/85/82 92/22/20 94/20/18
f 97/82/79 95/85/82 94/20/18
f 97/82/79 94/20/18 96/18/16
f 99/80/77 97/82/79 96/18/16
f 99/80/77 96/18/16 98/16/14
f 101/78/75 99/80/77 98/16/14
f 101/78/75 98/16/14 100/14/12
f 103/75/72 101/78/75 100/14/12
f 103/75/72 100/14/12 102/12/10
f 44/111/108 43/112/80 134/113/109
f 134/113/109 43/112/80 42/114/110
f 134/113/109 42/114/110 135/115/111
f 135/115/111 42/114/110 41/116/112
f 135/115/111 41/116/112 138/117/113
f 138/117/113 41/116/112 137/118/114
f 138/117/113 137/118/114 40/119/115
f 40/119/115 137/118/114 41/116/112
f 138/117/113 40/119/115 139/120/116
f 139/120/116 40/119/115 39/121/117
f 139/120/116 39/121/117 38/122/118
f 139/120/116 38/122/118 140/123/119
f 140/123/119 38/122/118 37/124/120
f 140/123/119 37/124/120 141/125/121
f 141/125/121 37/124/120 36/126/122
f 141/125/121 36/126/122 35/127/123
f 141/125/121 35/127/123 132/128/124
f 132/128/124 35/127/123 34/129/125
f 132/130/124 34/131/125 33/132/126
f 132/130/124 33/132/126 142/133/127
f 142/133/127 33/132/126 32/134/128
f 142/133/127 32/134/128 31/135/129
f 142/133/127 31/135/129 143/136/130
f 143/136/130 31/135/129 30/137/131
f 143/136/130 30/137/131 144/138/132
f 144/138/132 30/137/131 29/139/133
f 144/138/132 29/139/133 28/140/134
f 27/141/135 145/142/136 28/140/134
f 28/140/134 145/142/136 146/143/137
f 28/140/134 146/143/137 144/138/132
f 144/138/132 146/143/137 110/144/138
f 144/138/132 110/144/138 111/145/139
f 26/146/140 147/147/141 27/141/135
f 27/141/135 147/147/141 148/148/142
f 27/141/135 148/148/142 145/142/136
f 145/142/136 148/148/142 146/143/137
f 147/147/141 26/146/140 149/149/143
f 149/149/143 26/146/140 25/150/50
f 149/149/143 25/150/50 60/151/144
f 149/149/143 60/151/144 151/152/145
f 151/152/145 60/151/144 59/153/146
f 151/152/145 59/153/146 153/154/147
f 153/154/147 59/153/146 58/155/148
f 153/154/147 58/155/148 155/156/149
f 155/156/149 58/155/148 57/157/150
f 155/156/149 57/157/150 56/158/151
f 155/156/149 56/158/151 157/159/152
f 157/159/152 56/158/151 55/160/153
f 157/159/152 55/160/153 159/161/154
f 159/161/154 55/160/153 54/162/155
f 159/161/154 54/162/155 53/163/156
f 159/161/154 53/163/156 161/164/157
f 161/164/157 53/163/156 52/165/158
f 161/164/157 52/165/158 51/166/159
f 161/164/157 51/166/159 163/167/160
f 163/167/160 51/166/159 50/168/161
f 163/167/160 50/168/161 49/169/162
f 163/167/160 49/169/162 165/170/163
f 165/170/163 49/169/162 48/171/164
f 165/170/163 48/171/164 167/172/165
f 167/172/165 48/171/164 47/173/166
f 167/172/165 47/173/166 46/174/167
f 167/172/165 46/174/167 169/175/168
f 169/175/168 46/174/167 45/176/169
f 169/175/168 45/176/169 171/177/170
f 171/177/170 45/176/169 44/111/108
f 171/177/170 44/111/108 134/113/109
f 109/178/171 148/148/142 108/179/172
f 108/179/172 148/148/142 150/180/173
f 108/179/172 150/180/173 131/181/174
f 131/181/174 150/180/173 152/182/175
f 131/181/174 152/182/175 130/183/176
f 130/183/176 152/182/175 154/184/177
f 130/183/176 154/184/177 129/185/178
f 129/185/178 154/184/177 156/186/179
f 129/185/178 156/186/179 128/187/180
f 128/187/180 156/186/179 158/188/181
f 128/187/180 158/188/181 127/189/182
f 127/189/182 158/188/181 160/190/183
f 127/189/182 160/190/183 126/191/184
f 126/191/184 160/190/183 162/192/185
f 126/191/184 162/192/185 164/193/186
f 164/193/186 162/192/185 161/164/157
f 164/193/186 161/164/157 163/167/160
f 148/148/142 109/178/171 146/143/137
f 146/143/137 109/178/171 110/144/138
f 144/138/132 111/145/139 143/136/130
f 143/136/130 111/145/139 112/194/187
f 143/136/130 112/194/187 142/133/127
f 142/133/127 112/194/187 113/195/188
f 142/133/127 113/195/188 132/130/124
f 132/130/124 113/195/188 114/196/189
f 132/128/124 114/197/189 115/198/190
f 132/128/124 115/198/190 141/125/121
f 141/125/121 115/198/190 116/199/191
f 141/125/121 116/199/191 140/123/119
f 140/123/119 116/199/191 117/200/192
f 140/123/119 117/200/192 139/120/116
f 139/120/116 117/200/192 118/201/193
f 139/120/116 118/201/193 138/117/113
f 138/117/113 118/201/193 119/202/194
f 138/117/113 119/202/194 136/203/195
f 136/203/195 119/202/194 120/204/196
f 136/203/195 120/204/196 133/205/197
f 133/205/197 120/204/196 121/206/198
f 133/205/197 121/206/198 172/207/199
f 172/207/199 121/206/198 122/208/200
f 172/207/199 122/208/200 170/209/201
f 170/209/201 122/208/200 123/210/202
f 170/209/201 123/210/202 168/211/203
f 168/211/203 123/210/202 124/212/204
f 168/211/203 124/212/204 166/213/205
f 166/213/205 124/212/204 125/214/206
f 166/213/205 125/214/206 164/193/186
f 164/193/186 125/214/206 126/191/184
f 135/115/111 138/117/113 136/203/195
f 135/115/111 136/203/195 134/113/109
f 134/113/109 136/203/195 133/205/197
f 134/113/109 133/205/197 171/177/170
f 171/177/170 133/205/197 172/207/199
f 171/177/170 172/207/199 169/175/168
f 169/175/168 172/207/199 170/209/201
f 169/175/168 170/209/201 167/172/165
f 167/172/165 170/209/201 168/211/203
f 167/172/165 168/211/203 165/170/163
f 165/170/163 168/211/203 166/213/205
f 165/170/163 166/213/205 163/167/160
f 163/167/160 166/213/205 164/193/186
f 150/180/173 148/148/142 147/147/141
f 152/182/175 150/180/173 149/149/143
f 149/149/143 150/180/173 147/147/141
f 154/184/177 152/182/175 151/152/145
f 151/152/145 152/182/175 149/149/143
f 156/186/179 154/184/177 153/154/147
f 153/154/147 154/184/177 151/152/145
f 158/188/181 156/186/179 155/156/149
f 155/156/149 156/186/179 153/154/147
f 160/190/183 158/188/181 157/159/152
f 157/159/152 158/188/181 155/156/149
f 162/192/185 160/190/183 159/161/154
f 159/161/154 160/190/183 157/159/152
f 161/164/157 162/192/185 159/161/154
f 174/215/207 199/216/208 173/217/209
f 173/217/209 199/216/208 197/218/210
f 173/219/209 197/220/210 196/221/211
f 196/221/211 197/220/210 243/222/212
f 196/221/211 243/222/212 195/223/213
f 195/223/213 243/222/212 241/224/214
f 195/223/213 241/224/214 194/225/215
f 194/225/215 241/224/214 239/226/216
f 194/225/215 239/226/216 193/227/217
f 193/227/217 239/226/216 237/228/218
f 193/227/217 237/228/218 192/229/219
f 192/229/219 237/228/218 235/230/220
f 192/229/219 235/230/220 191/231/221
f 191/231/221 235/230/220 233/232/222
f 191/231/221 233/232/222 190/233/223
f 190/233/223 233/232/222 231/234/224
f 190/233/223 231/234/224 189/235/225
f 189/235/225 231/234/224 229/236/226
f 189/235/225 229/236/226 188/237/227
f 188/237/227 229/236/226 227/238/228
f 188/237/227 227/238/228 187/239/229
f 187/239/229 227/238/228 225/240/230
f 187/239/229 225/240/230 186/241/231
f 186/241/231 225/240/230 223/242/232
f 186/241/231 223/242/232 185/243/233
f 185/243/233 223/242/232 221/244/234
f 185/243/233 221/244/234 184/245/235
f 184/245/235 221/244/234 219/246/236
f 184/245/235 219/246/236 183/247/237
f 183/247/237 219/246/236 217/248/238
f 183/247/237 217/248/238 182/249/239
f 182/249/239 217/248/238 215/250/240
f 182/249/239 215/250/240 181/251/241
f 181/251/241 215/250/240 213/252/242
f 181/251/241 213/252/242 180/253/243
f 180/253/243 213/252/242 211/254/244
f 180/253/243 211/254/244 179/255/245
f 179/255/245 211/254/244 209/256/246
f 179/255/245 209/256/246 178/257/247
f 178/257/247 209/256/246 207/258/248
f 178/257/247 207/258/248 177/259/249
f 177/259/249 207/258/248 205/260/250
f 177/259/249 205/260/250 176/261/251
f 176/261/251 205/260/250 203/262/252
f 176/261/251 203/262/252 175/263/253
f 175/263/253 203/262/252 201/264/254
f 175/263/253 201/264/254 174/215/207
f 174/215/207 201/264/254 199/216/208
f 119/265/255 208/266/256 120/267/196
f 120/267/196 208/266/256 210/268/257
f 120/267/196 210/268/257 121/269/258
f 121/269/258 210/268/257 212/270/259
f 121/269/258 212/270/259 122/271/260
f 122/271/260 212/270/259 214/272/261
f 122/271/260 214/272/261 123/273/262
f 123/273/262 214/272/261 216/274/263
f 123/273/262 216/274/263 124/275/264
f 124/275/264 216/274/263 218/276/265
f 124/275/264 218/276/265 125/277/266
f 125/277/266 218/276/265 220/278/267
f 125/277/266 220/278/267 126/279/268
f 126/279/268 220/278/267 222/280/269
f 126/279/268 222/280/269 224/281/270
f 224/281/270 222/280/269 221/244/234
f 224/281/270 221/244/234 223/242/232
f 208/266/256 119/265/255 206/282/271
f 206/282/271 119/265/255 118/283/272
f 206/282/271 118/283/272 204/284/273
f 204/284/273 118/283/272 117/285/274
f 204/284/273 117/285/274 202/286/275
f 202/286/275 117/285/274 116/287/276
f 202/286/275 116/287/276 200/288/277
f 200/288/277 116/287/276 115/289/278
f 200/288/277 115/289/278 198/290/279
f 198/290/279 115/289/278 114/291/280
f 198/292/279 114/293/280 113/294/281
f 198/292/279 113/294/281 244/295/282
f 244/295/282 113/294/281 112/296/283
f 244/295/282 112/296/283 242/297/284
f 242/297/284 112/296/283 111/298/285
f 242/297/284 111/298/285 240/299/286
f 240/299/286 111/298/285 110/300/287
f 240/299/286 110/300/287 238/301/288
f 238/301/288 110/300/287 109/302/289
f 238/301/288 109/302/289 236/303/290
f 236/303/290 109/302/289 108/304/172
f 236/303/290 108/304/172 234/305/291
f 234/305/291 108/304/172 131/306/292
f 234/305/291 131/306/292 232/307/293
f 232/307/293 131/306/292 130/308/294
f 232/307/293 130/308/294 230/309/295
f 230/309/295 130/308/294 129/310/296
f 230/309/295 129/310/296 228/311/297
f 228/311/297 129/310/296 128/312/298
f 228/311/297 128/312/298 226/313/299
f 226/313/299 128/312/298 127/314/300
f 226/313/299 127/314/300 224/281/270
f 224/281/270 127/314/300 126/279/268
f 197/220/210 198/292/279 243/222/212
f 243/222/212 198/292/279 244/295/282
f 243/222/212 244/295/282 241/224/214
f 241/224/214 244/295/282 242/297/284
f 241/224/214 242/297/284 239/226/216
f 239/226/216 242/297/284 240/299/286
f 239/226/216 240/299/286 237/228/218
f 237/228/218 240/299/286 238/301/288
f 237/228/218 238/301/288 235/230/220
f 235/230/220 238/301/288 236/303/290
f 235/230/220 236/303/290 233/232/222
f 233/232/222 236/303/290 234/305/291
f 233/232/222 234/305/291 231/234/224
f 231/234/224 234/305/291 232/307/293
f 231/234/224 232/307/293 229/236/226
f 229/236/226 232/307/293 230/309/295
f 229/236/226 230/309/295 227/238/228
f 227/238/228 230/309/295 228/311/297
f 227/238/228 228/311/297 225/240/230
f 225/240/230 228/311/297 226/313/299
f 225/240/230 226/313/299 223/242/232
f 223/242/232 226/313/299 224/281/270
f 198/290/279 197/218/210 200/288/277
f 200/288/277 197/218/210 199/216/208
f 200/288/277 199/216/208 202/286/275
f 202/286/275 199/216/208 201/264/254
f 202/286/275 201/264/254 204/284/273
f 204/284/273 201/264/254 203/262/252
f 204/284/273 203/262/252 206/282/271
f 206/282/271 203/262/252 205/260/250
f 206/282/271 205/260/250 208/266/256
f 208/266/256 205/260/250 207/258/248
f 208/266/256 207/258/248 210/268/257
f 210/268/257 207/258/248 209/256/246
f 210/268/257 209/256/246 212/270/259
f 212/270/259 209/256/246 211/254/244
f 212/270/259 211/254/244 214/272/261
f 214/272/261 211/254/244 213/252/242
f 214/272/261 213/252/242 216/274/263
f 216/274/263 213/252/242 215/250/240
f 216/274/263 215/250/240 218/276/265
f 218/276/265 215/250/240 217/248/238
f 218/276/265 217/248/238 220/278/267
f 220/278/267 217/248/238 219/246/236
f 220/278/267 219/246/236 222/280/269
f 222/280/269 219/246/236 221/244/234
f 246/315/301 306/316/302 245/317/303
f 245/317/303 306/316/302 305/318/304
f 245/319/303 305/320/304 268/321/305
f 268/321/305 305/320/304 350/322/306
f 268/321/305 350/322/306 267/323/307
f 267/323/307 350/322/306 348/324/308
f 267/323/307 348/324/308 266/325/309
f 266/325/309 348/324/308 346/326/310
f 266/325/309 346/326/310 265/327/311
f 265/327/311 346/326/310 344/328/312
f 265/327/311 344/328/312 264/329/313
f 264/329/313 344/328/312 342/330/314
f 264/329/313 342/330/314 263/331/315
f 263/331/315 342/330/314 340/332/316
f 263/331/315 340/332/316 262/333/317
f 262/333/317 340/332/316 338/334/318
f 262/333/317 338/334/318 261/335/319
f 261/335/319 338/334/318 336/336/320
f 261/335/319 336/336/320 260/337/321
f 260/337/321 336/336/320 334/338/322
f 260/337/321 334/338/322 259/339/323
f 259/339/323 334/338/322 332/340/324
f 259/339/323 332/340/324 258/341/325
f 258/341/325 332/340/324 330/342/326
f 258/341/325 330/342/326 257/343/327
f 257/343/327 330/342/326 328/344/328
f 257/343/327 328/344/328 256/345/329
f 256/345/329 328/344/328 326/346/330
f 256/345/329 326/346/330 255/347/331
f 255/347/331 326/346/330 324/348/332
f 255/347/331 324/348/332 254/349/333
f 254/349/333 324/348/332 322/350/334
f 254/349/333 322/350/334 253/351/335
f 253/351/335 322/350/334 320/352/336
f 253/351/335 320/352/336 252/353/337
f 252/353/337 320/352/336 318/354/338
f 252/353/337 318/354/338 251/355/339
f 251/355/339 318/354/338 316/356/340
f 251/355/339 316/356/340 250/357/341
f 250/357/341 316/356/340 314/358/342
f 250/357/341 314/358/342 249/359/343
f 249/359/343 314/358/342 312/360/344
f 249/359/343 312/360/344 248/361/345
f 248/361/345 312/360/344 310/362/346
f 248/361/345 310/362/346 247/363/347
f 247/363/347 310/362/346 308/364/348
f 247/363/347 308/364/348 246/315/301
f 246/315/301 308/364/348 306/316/302
f 304/365/349 269/366/350 317/367/351
f 317/367/351 269/366/350 270/368/352
f 317/367/351 270/368/352 315/369/353
f 315/369/353 270/368/352 271/370/354
f 315/369/353 271/370/354 313/371/355
f 313/371/355 271/370/354 272/372/356
f 313/371/355 272/372/356 311/373/357
f 311/373/357 272/372/356 273/374/358
f 311/373/357 273/374/358 274/375/359
f 275/376/360 309/377/361 274/375/359
f 274/375/359 309/377/361 308/364/348
f 274/375/359 308/364/348 310/362/346
f 276/378/362 307/379/363 275/376/360
f 275/376/360 307/379/363 306/316/302
f 275/376/360 306/316/302 308/364/348
f 307/379/363 276/378/362 306/316/302
f 306/316/302 276/378/362 277/380/364
f 306/316/302 277/380/364 305/318/304
f 305/318/304 277/380/364 278/381/365
f 305/320/304 278/382/365 279/383/366
f 305/320/304 279/383/366 350/322/306
f 350/322/306 279/383/366 280/384/367
f 350/322/306 280/384/367 351/385/368
f 351/385/368 280/384/367 281/386/369
f 351/385/368 281/386/369 350/322/306
f 350/322/306 281/386/369 348/324/308
f 348/324/308 281/386/369 349/387/370
f 349/387/370 281/386/369 282/388/371
f 349/387/370 282/388/371 348/324/308
f 348/324/308 282/388/371 346/326/310
f 346/326/310 282/388/371 347/389/372
f 347/389/372 282/388/371 283/390/373
f 347/389/372 283/390/373 284/391/374
f 347/389/372 284/391/374 345/392/375
f 345/392/375 284/391/374 285/393/376
f 345/392/375 285/393/376 343/394/377
f 343/394/377 285/393/376 286/395/378
f 343/394/377 286/395/378 341/396/379
f 341/396/379 286/395/378 287/397/380
f 341/396/379 287/397/380 288/398/381
f 341/396/379 288/398/381 339/399/382
f 339/399/382 288/398/381 289/400/383
f 339/399/382 289/400/383 337/401/384
f 337/401/384 289/400/383 290/402/385
f 337/401/384 290/402/385 335/403/386
f 335/403/386 290/402/385 291/404/387
f 335/403/386 291/404/387 292/405/388
f 335/403/386 292/405/388 333/406/389
f 333/406/389 292/405/388 293/407/390
f 333/406/389 293/407/390 331/408/391
f 331/408/391 293/407/390 294/409/392
f 331/408/391 294/409/392 295/410/393
f 331/408/391 295/410/393 329/411/394
f 329/411/394 295/410/393 296/412/395
f 329/411/394 296/412/395 297/413/396
f 329/411/394 297/413/396 327/414/397
f 327/414/397 297/413/396 298/415/398
f 327/414/397 298/415/398 299/416/399
f 327/414/397 299/416/399 325/417/400
f 325/417/400 299/416/399 300/418/401
f 325/417/400 300/418/401 323/419/402
f 323/419/402 300/418/401 301/420/403
f 323/419/402 301/420/403 302/421/404
f 323/419/402 302/421/404 321/422/405
f 321/422/405 302/421/404 303/423/406
f 321/422/405 303/423/406 319/424/407
f 319/424/407 303/423/406 304/365/349
f 319/424/407 304/365/349 317/367/351
f 308/364/348 309/377/361 275/376/360
f 313/371/355 311/373/357 310/362/346
f 310/362/346 311/373/357 274/375/359
f 313/371/355 310/362/346 312/360/344
f 315/369/353 313/371/355 312/360/344
f 315/369/353 312/360/344 314/358/342
f 317/367/351 315/369/353 314/358/342
f 317/367/351 314/358/342 316/356/340
f 319/424/407 317/367/351 316/356/340
f 319/424/407 316/356/340 318/354/338
f 321/422/405 319/424/407 318/354/338
f 321/422/405 318/354/338 320/352/336
f 323/419/402 321/422/405 320/352/336
f 323/419/402 320/352/336 322/350/334
f 325/417/400 323/419/402 322/350/334
f 325/417/400 322/350/334 324/348/332
f 327/414/397 325/417/400 324/348/332
f 327/414/397 324/348/332 326/346/330
f 329/411/394 327/414/397 326/346/330
f 329/411/394 326/346/330 328/344/328
f 331/408/391 329/411/394 328/344/328
f 331/408/391 328/344/328 330/342/326
f 333/406/389 331/408/391 330/342/326
f 333/406/389 330/342/326 332/340/324
f 335/403/386 333/406/389 332/340/324
f 335/403/386 332/340/324 334/338/322
f 337/401/384 335/403/386 334/338/322
f 337/401/384 334/338/322 336/336/320
f 339/399/382 337/401/384 336/336/320
f 339/399/382 336/336/320 338/334/318
f 341/396/379 339/399/382 338/334/318
f 341/396/379 338/334/318 340/332/316
f 343/394/377 341/396/379 340/332/316
f 343/394/377 340/332/316 342/330/314
f 345/392/375 343/394/377 342/330/314
f 345/392/375 342/330/314 344/328/312
f 347/389/372 345/392/375 344/328/312
f 347/389/372 344/328/312 346/326/310
f 24/425/408 246/426/409 1/427/410
f 1/427/410 246/426/409 245/428/411
f 1/427/410 245/428/411 268/429/412
f 246/426/409 24/425/408 247/430/413
f 247/430/413 24/425/408 23/431/414
f 247/430/413 23/431/414 248/432/415
f 248/432/415 23/431/414 22/433/416
f 248/432/415 22/433/416 249/434/417
f 249/434/417 22/433/416 21/435/418
f 249/434/417 21/435/418 250/436/419
f 250/436/419 21/435/418 20/437/420
f 250/436/419 20/437/420 251/438/421
f 251/438/421 20/437/420 19/439/422
f 251/438/421 19/439/422 18/440/423
f 251/438/421 18/440/423 252/441/424
f 252/441/424 18/440/423 17/442/425
f 252/441/424 17/442/425 253/443/426
f 253/443/426 17/442/425 16/444/427
f 253/443/426 16/444/427 254/445/428
f 254/445/428 16/444/427 15/446/429
f 254/445/428 15/446/429 255/447/430
f 255/447/430 15/446/429 14/448/431
f 255/447/430 14/448/431 256/449/432
f 256/449/432 14/448/431 13/450/433
f 256/449/432 13/450/433 257/451/434
f 257/451/434 13/450/433 258/452/435
f 258/452/435 13/450/433 12/453/436
f 258/452/435 12/453/436 259/454/437
f 259/454/437 12/453/436 11/455/438
f 259/454/437 11/455/438 260/456/439
f 260/456/439 11/455/438 10/457/440
f 260/456/439 10/457/440 261/458/441
f 261/458/441 10/457/440 9/459/442
f 261/458/441 9/459/442 262/460/443
f 262/460/443 9/459/442 8/461/444
f 262/460/443 8/461/444 263/462/445
f 263/462/445 8/461/444 7/463/446
f 263/462/445 7/463/446 264/464/447
f 264/464/447 7/463/446 6/465/448
f 264/464/447 6/465/448 5/466/449
f 264/464/447 5/466/449 265/467/450
f 265/467/450 5/466/449 4/468/451
f 265/467/450 4/468/451 266/469/452
f 266/469/452 4/468/451 3/470/453
f 266/469/452 3/470/453 267/471/454
f 267/471/454 3/470/453 2/472/455
f 267/471/454 2/472/455 268/429/412
f 268/429/412 2/472/455 1/427/410
f 288/473/456 287/474/380 378/475/457
f 378/475/457 287/474/380 286/476/458
f 378/475/457 286/476/458 379/477/459
f 379/477/459 286/476/458 285/478/460
f 379/477/459 285/478/460 380/479/461
f 380/479/461 285/478/460 382/480/462
f 380/479/461 382/480/462 363/481/463
f 363/481/463 382/480/462 362/482/464
f 362/482/464 382/480/462 383/483/465
f 362/482/464 383/483/465 361/484/466
f 361/484/466 383/483/465 384/485/467
f 361/484/466 384/485/467 360/486/468
f 360/486/468 384/485/467 385/487/469
f 360/486/468 385/487/469 359/488/470
f 359/488/470 385/487/469 376/489/471
f 359/488/470 376/489/471 358/490/472
f 358/491/472 376/492/471 357/493/473
f 357/493/473 376/492/471 386/494/474
f 357/493/473 386/494/474 356/495/475
f 356/495/475 386/494/474 387/496/476
f 356/495/475 387/496/476 355/497/477
f 355/497/477 387/496/476 388/498/478
f 355/497/477 388/498/478 354/499/479
f 354/499/479 388/498/478 390/500/480
f 354/499/479 390/500/480 353/501/481
f 353/501/481 390/500/480 392/502/482
f 353/501/481 392/502/482 352/503/483
f 352/503/483 392/502/482 394/504/484
f 352/503/483 394/504/484 375/505/485
f 375/505/485 394/504/484 396/506/486
f 375/505/485 396/506/486 374/507/487
f 374/507/487 396/506/486 398/508/488
f 374/507/487 398/508/488 373/509/489
f 373/509/489 398/508/488 400/510/490
f 373/509/489 400/510/490 372/511/491
f 372/511/491 400/510/490 402/512/492
f 372/511/491 402/512/492 371/513/493
f 371/513/493 402/512/492 404/514/494
f 371/513/493 404/514/494 370/515/495
f 370/515/495 404/514/494 406/516/496
f 370/515/495 406/516/496 408/517/497
f 408/517/497 406/516/496 405/518/498
f 408/517/497 405/518/498 407/519/499
f 407/519/499 405/518/498 295/520/500
f 407/519/499 295/520/500 294/521/501
f 382/480/462 285/478/460 381/522/502
f 381/522/502 285/478/460 284/523/503
f 381/522/502 284/523/503 382/480/462
f 382/480/462 284/523/503 383/483/465
f 284/523/503 283/524/504 383/483/465
f 383/483/465 283/524/504 282/525/505
f 383/483/465 282/525/505 384/485/467
f 384/485/467 282/525/505 281/526/506
f 384/485/467 281/526/506 385/487/469
f 385/487/469 281/526/506 280/527/507
f 385/487/469 280/527/507 279/528/508
f 385/487/469 279/528/508 376/489/471
f 376/489/471 279/528/508 278/529/509
f 376/492/471 278/530/509 277/531/510
f 376/492/471 277/531/510 386/494/474
f 386/494/474 277/531/510 276/532/511
f 386/494/474 276/532/511 275/533/512
f 386/494/474 275/533/512 387/496/476
f 387/496/476 275/533/512 274/534/513
f 387/496/476 274/534/513 388/498/478
f 388/498/478 274/534/513 273/535/514
f 388/498/478 273/535/514 272/536/515
f 271/537/516 389/538/517 272/536/515
f 272/536/515 389/538/517 390/500/480
f 272/536/515 390/500/480 388/498/478
f 270/539/518 391/540/519 271/537/516
f 271/537/516 391/540/519 392/502/482
f 271/537/516 392/502/482 390/500/480
f 391/540/519 270/539/518 393/541/520
f 393/541/520 270/539/518 269/542/350
f 393/541/520 269/542/350 304/543/521
f 393/541/520 304/543/521 395/544/522
f 395/544/522 304/543/521 303/545/523
f 395/544/522 303/545/523 397/546/524
f 397/546/524 303/545/523 302/547/525
f 397/546/524 302/547/525 399/548/526
f 399/548/526 302/547/525 301/549/527
f 399/548/526 301/549/527 300/550/528
f 399/548/526 300/550/528 401/551/529
f 401/551/529 300/550/528 299/552/530
f 401/551/529 299/552/530 403/553/531
f 403/553/531 299/552/530 298/554/532
f 403/553/531 298/554/532 297/555/533
f 403/553/531 297/555/533 405/518/498
f 405/518/498 297/555/533 296/556/534
f 405/518/498 296/556/534 295/520/500
f 294/521/501 293/557/535 407/519/499
f 407/519/499 293/557/535 409/558/536
f 407/519/499 409/558/536 410/559/537
f 410/559/537 409/558/536 412/560/538
f 410/559/537 412/560/538 368/561/539
f 368/561/539 412/560/538 367/562/540
f 367/562/540 412/560/538 414/563/541
f 367/562/540 414/563/541 366/564/542
f 366/564/542 414/563/541 416/565/543
f 366/564/542 416/565/543 365/566/544
f 365/566/544 416/565/543 377/567/545
f 365/566/544 377/567/545 364/568/546
f 364/568/546 377/567/545 380/479/461
f 364/568/546 380/479/461 363/481/463
f 293/557/535 292/569/547 409/558/536
f 409/558/536 292/569/547 411/570/548
f 409/558/536 411/570/548 412/560/538
f 412/560/538 411/570/548 414/563/541
f 292/569/547 291/571/549 411/570/548
f 411/570/548 291/571/549 290/572/550
f 411/570/548 290/572/550 413/573/551
f 413/573/551 290/572/550 289/574/552
f 413/573/551 289/574/552 415/575/553
f 415/575/553 289/574/552 288/473/456
f 415/575/553 288/473/456 378/475/457
f 368/561/539 369/576/554 410/559/537
f 410/559/537 369/576/554 408/517/497
f 410/559/537 408/517/497 407/519/499
f 369/576/554 370/515/495 408/517/497
f 379/477/459 380/479/461 378/475/457
f 378/475/457 380/479/461 377/567/545
f 378/475/457 377/567/545 415/575/553
f 415/575/553 377/567/545 416/565/543
f 415/575/553 416/565/543 413/573/551
f 413/573/551 416/565/543 414/563/541
f 413/573/551 414/563/541 411/570/548
f 271/537/516 390/500/480 389/538/517
f 394/504/484 392/502/482 391/540/519
f 396/506/486 394/504/484 393/541/520
f 393/541/520 394/504/484 391/540/519
f 398/508/488 396/506/486 395/544/522
f 395/544/522 396/506/486 393/541/520
f 400/510/490 398/508/488 397/546/524
f 397/546/524 398/508/488 395/544/522
f 402/512/492 400/510/490 399/548/526
f 399/548/526 400/510/490 397/546/524
f 404/514/494 402/512/492 401/551/529
f 401/551/529 402/512/492 399/548/526
f 406/516/496 404/514/494 403/553/531
f 403/553/531 404/514/494 401/551/529
f 405/518/498 406/516/496 403/553/531
f 418/577/555 443/578/556 417/579/557
f 417/579/557 443/578/556 441/580/558
f 417/581/557 441/582/558 440/583/559
f 440/583/559 441/582/558 487/584/560
f 440/583/559 487/584/560 439/585/561
f 439/585/561 487/584/560 485/586/562
f 439/585/561 485/586/562 438/587/563
f 438/587/563 485/586/562 483/588/564
f 438/587/563 483/588/564 437/589/565
f 437/589/565 483/588/564 481/590/566
f 437/589/565 481/590/566 436/591/567
f 436/591/567 481/590/566 479/592/568
f 436/591/567 479/592/568 435/593/569
f 435/593/569 479/592/568 477/594/570
f 435/593/569 477/594/570 434/595/571
f 434/595/571 477/594/570 475/596/572
f 434/595/571 475/596/572 433/597/573
f 433/597/573 475/596/572 473/598/574
f 433/597/573 473/598/574 432/599/575
f 432/599/575 473/598/574 471/600/576
f 432/599/575 471/600/576 431/601/577
f 431/601/577 471/600/576 469/602/578
f 431/601/577 469/602/578 430/603/579
f 430/603/579 469/602/578 467/604/580
f 430/603/579 467/604/580 429/605/581
f 429/605/581 467/604/580 465/606/582
f 429/605/581 465/606/582 428/607/583
f 428/607/583 465/606/582 463/608/584
f 428/607/583 463/608/584 427/609/585
f 427/609/585 463/608/584 461/610/586
f 427/609/585 461/610/586 426/611/587
f 426/611/587 461/610/586 459/612/588
f 426/611/587 459/612/588 425/613/589
f 425/613/589 459/612/588 457/614/590
f 425/613/589 457/614/590 424/615/591
f 424/615/591 457/614/590 455/616/592
f 424/615/591 455/616/592 423/617/593
f 423/617/593 455/616/592 453/618/594
f 423/617/593 453/618/594 422/619/595
f 422/619/595 453/618/594 451/620/596
f 422/619/595 451/620/596 421/621/597
f 421/621/597 451/620/596 449/622/598
f 421/621/597 449/622/598 420/623/599
f 420/623/599 449/622/598 447/624/600
f 420/623/599 447/624/600 419/625/601
f 419/625/601 447/624/600 445/626/602
f 419/625/601 445/626/602 418/577/555
f 418/577/555 445/626/602 443/578/556
f 363/627/603 452/628/604 364/629/546
f 364/629/546 452/628/604 454/630/605
f 364/629/546 454/630/605 365/631/606
f 365/631/606 454/630/605 456/632/607
f 365/631/606 456/632/607 366/633/608
f 366/633/608 456/632/607 458/634/609
f 366/633/608 458/634/609 367/635/610
f 367/635/610 458/634/609 460/636/611
f 367/635/610 460/636/611 368/637/612
f 368/637/612 460/636/611 462/638/613
f 368/637/612 462/638/613 369/639/614
f 369/639/614 462/638/613 464/640/615
f 369/639/614 464/640/615 370/641/616
f 370/641/616 464/640/615 466/642/617
f 370/641/616 466/642/617 468/643/618
f 468/643/618 466/642/617 465/606/582
f 468/643/618 465/606/582 467/604/580
f 452/628/604 363/627/603 450/644/619
f 450/644/619 363/627/603 362/645/620
f 450/644/619 362/645/620 448/646/621
f 448/646/621 362/645/620 361/647/622
f 448/646/621 361/647/622 446/648/623
f 446/648/623 361/647/622 360/649/624
f 446/648/623 360/649/624 444/650/625
f 444/650/625 360/649/624 359/651/626
f 444/650/625 359/651/626 442/652/627
f 442/652/627 359/651/626 358/653/628
f 442/654/627 358/655/628 357/656/629
f 442/654/627 357/656/629 488/657/630
f 488/657/630 357/656/629 356/658/631
f 488/657/630 356/658/631 486/659/632
f 486/659/632 356/658/631 355/660/633
f 486/659/632 355/660/633 484/661/634
f 484/661/634 355/660/633 354/662/635
f 484/661/634 354/662/635 482/663/636
f 482/663/636 354/662/635 353/664/637
f 482/663/636 353/664/637 480/665/638
f 480/665/638 353/664/637 352/666/483
f 480/665/638 352/666/483 478/667/639
f 478/667/639 352/666/483 375/668/640
f 478/667/639 375/668/640 476/669/641
f 476/669/641 375/668/640 374/670/642
f 476/669/641 374/670/642 474/671/643
f 474/671/643 374/670/642 373/672/644
f 474/671/643 373/672/644 472/673/645
f 472/673/645 373/672/644 372/674/646
f 472/673/645 372/674/646 470/675/647
f 470/675/647 372/674/646 371/676/648
f 470/675/647 371/676/648 468/643/618
f 468/643/618 371/676/648 370/641/616
f 441/582/558 442/654/627 487/584/560
f 487/584/560 442/654/627 488/657/630
f 487/584/560 488/657/630 485/586/562
f 485/586/562 488/657/630 486/659/632
f 485/586/562 486/659/632 483/588/564
f 483/588/564 486/659/632 484/661/634
f 483/588/564 484/661/634 481/590/566
f 481/590/566 484/661/634 482/663/636
f 481/590/566 482/663/636 479/592/568
f 479/592/568 482/663/636 480/665/638
f 479/592/568 480/665/638 477/594/570
f 477/594/570 480/665/638 478/667/639
f 477/594/570 478/667/639 475/596/572
f 475/596/572 478/667/639 476/669/641
f 475/596/572 476/669/641 473/598/574
f 473/598/574 476/669/641 474/671/643
f 473/598/574 474/671/643 471/600/576
f 471/600/576 474/671/643 472/673/645
f 471/600/576 472/673/645 469/602/578
f 469/602/578 472/673/645 470/675/647
f 469/602/578 470/675/647 467/604/580
f 467/604/580 470/675/647 468/643/618
f 442/652/627 441/580/558 444/650/625
f 444/650/625 441/580/558 443/578/556
f 444/650/625 443/578/556 446/648/623
f 446/648/623 443/578/556 445/626/602
f 446/648/623 445/626/602 448/646/621
f 448/646/621 445/626/602 447/624/600
f 448/646/621 447/624/600 450/644/619
f 450/644/619 447/624/600 449/622/598
f 450/644/619 449/622/598 452/628/604
f 452/628/604 449/622/598 451/620/596
f 452/628/604 451/620/596 454/630/605
f 454/630/605 451/620/596 453/618/594
f 454/630/605 453/618/594 456/632/607
f 456/632/607 453/618/594 455/616/592
f 456/632/607 455/616/592 458/634/609
f 458/634/609 455/616/592 457/614/590
f 458/634/609 457/614/590 460/636/611
f 460/636/611 457/614/590 459/612/588
f 460/636/611 459/612/588 462/638/613
f 462/638/613 459/612/588 461/610/586
f 462/638/613 461/610/586 464/640/615
f 464/640/615 461/610/586 463/608/584
f 464/640/615 463/608/584 466/642/617
f 466/642/617 463/608/584 465/606/582
f 196/677/649 418/678/650 173/679/651
f 173/679/651 418/678/650 417/680/652
f 173/679/651 417/680/652 440/681/653
f 418/678/650 196/677/649 419/682/654
f 419/682/654 196/677/649 195/683/655
f 419/682/654 195/683/655 420/684/656
f 420/684/656 195/683/655 194/685/657
f 420/684/656 194/685/657 421/686/658
f 421/686/658 194/685/657 193/687/659
f 421/686/658 193/687/659 422/688/660
f 422/688/660 193/687/659 192/689/661
f 422/688/660 192/689/661 423/690/662
f 423/690/662 192/689/661 191/691/663
f 423/690/662 191/691/663 190/692/664
f 423/690/662 190/692/664 424/693/665
f 424/693/665 190/692/664 189/694/666
f 424/693/665 189/694/666 425/695/667
f 425/695/667 189/694/666 188/696/668
f 425/695/667 188/696/668 426/697/669
f 426/697/669 188/696/668 187/698/670
f 426/697/669 187/698/670 427/699/671
f 427/699/671 187/698/670 186/700/672
f 427/699/671 186/700/672 428/701/673
f 428/701/673 186/700/672 185/702/674
f 428/701/673 185/702/674 429/703/675
f 429/703/675 185/702/674 430/704/676
f 430/704/676 185/702/674 184/705/677
f 430/704/676 184/705/677 431/706/678
f 431/706/678 184/705/677 183/707/679
f 431/706/678 183/707/679 432/708/680
f 432/708/680 183/707/679 182/709/681
f 432/708/680 182/709/681 433/710/682
f 433/710/682 182/709/681 181/711/683
f 433/710/682 181/711/683 434/712/684
f 434/712/684 181/711/683 180/713/685
f 434/712/684 180/713/685 435/714/686
f 435/714/686 180/713/685 179/715/687
f 435/714/686 179/715/687 436/716/688
f 436/716/688 179/715/687 178/717/689
f 436/716/688 178/717/689 177/718/690
f 436/716/688 177/718/690 437/719/691
f 437/719/691 177/718/690 176/720/692
f 437/719/691 176/720/692 438/721/693
f 438/721/693 176/720/692 175/722/694
f 438/721/693 175/722/694 439/723/695
f 439/723/695 175/722/694 174/724/696
f 439/723/695 174/724/696 440/681/653
f 440/681/653 174/724/696 173/679/651
# 488 vertices
# 724 texture params
# 696 normals
# 976 facets

# 1 groups
